<svg xmlns="http://www.w3.org/2000/svg" viewBox="0 0 487.85 476.48"><g id="freepik--Floor--inject-90"><path id="freepik--floor--inject-90" d="M76.58,455.83c-95.13-53.48-95.13-140.2,0-193.69s249.57-53.48,345,0,95.4,140.2,0,193.69S171.71,509.32,76.58,455.83Z" transform="translate(-5.24 -19.47)" style="fill:#fafafa"></path></g><g id="freepik--Window--inject-90"><g id="freepik--window--inject-90"><g id="freepik--window--inject-90"><g id="freepik--Frame--inject-90"><polygon points="463.17 208.57 460.91 209.92 384.13 165.59 386.39 164.24 463.17 208.57" style="fill:#fafafa"></polygon><polygon points="386.39 164.24 460.91 207.26 460.91 56.33 386.39 13.32 386.39 164.24" style="fill:#fff"></polygon><path d="M385.1,187.52l85.31,49.25V73.35L385.1,24.1Zm4.26-156L466.15,75.8V229.39l-76.78-44.33Z" transform="translate(-5.24 -19.47)" style="fill:#f0f0f0"></path><polygon points="384.13 165.59 386.39 164.24 386.39 13.32 384.13 12 384.13 165.59" style="fill:#e0e0e0"></polygon><polygon points="460.91 154.45 460.91 157.1 384.13 112.77 386.39 111.42 460.91 154.45" style="fill:#fafafa"></polygon><polygon points="460.91 101.6 460.91 104.25 384.13 59.92 386.39 58.57 460.91 101.6" style="fill:#fafafa"></polygon><polygon points="379.87 4.62 382.16 3.31 467.46 52.56 465.17 53.87 379.87 4.62" style="fill:#fafafa"></polygon><polygon points="467.46 52.56 465.17 53.87 465.17 217.3 467.46 215.99 467.46 52.56" style="fill:#e0e0e0"></polygon><polygon points="428.07 37.37 425.78 36.05 425.78 189.64 428.07 188.33 428.07 37.37" style="fill:#e0e0e0"></polygon></g><polygon points="421.52 33.6 425.78 36.05 425.78 189.64 421.52 187.18 421.52 33.6" style="fill:#f0f0f0"></polygon><polygon points="379.87 57.46 379.87 62.37 465.17 111.62 465.17 106.71 379.87 57.46" style="fill:#f0f0f0"></polygon><polygon points="379.87 110.3 379.87 115.21 465.17 164.46 465.17 159.55 379.87 110.3" style="fill:#f0f0f0"></polygon><polygon points="425.78 83.97 428.07 82.64 460.91 101.6 460.91 104.25 425.78 83.97" style="fill:#fafafa"></polygon><polygon points="425.78 136.79 428.07 135.46 460.91 154.42 460.91 157.07 425.78 136.79" style="fill:#fafafa"></polygon></g></g></g><g id="freepik--Shadows--inject-90"><path id="freepik--Shadow--inject-90" d="M75,426.46,17.15,393.14c-1.35-.78-1.35-2,0-2.81L160,307.54a5.39,5.39,0,0,1,4.87,0l57.81,33.32c1.34.78,1.34,2,0,2.82L79.83,426.45A5.36,5.36,0,0,1,75,426.46Z" transform="translate(-5.24 -19.47)" style="fill:#e6e6e6"></path><ellipse id="freepik--shadow--inject-90" cx="377.54" cy="393.07" rx="66.41" ry="38.34" style="fill:#e6e6e6"></ellipse><path id="freepik--shadow--inject-90" d="M257,360.21l-152.86,88.2c-1.79,1-1.79,2.7,0,3.73l23.92,13.78a7.18,7.18,0,0,0,6.48,0l152.86-88.2c1.78-1,1.78-2.71,0-3.74l-23.93-13.77A7.1,7.1,0,0,0,257,360.21Z" transform="translate(-5.24 -19.47)" style="fill:#e6e6e6"></path><ellipse id="freepik--shadow--inject-90" cx="68.87" cy="423.59" rx="32.07" ry="18.52" style="fill:#e6e6e6"></ellipse><polygon id="freepik--shadow--inject-90" points="235.32 299.07 294.4 264.94 371.76 309.56 312.68 343.68 235.32 299.07" style="fill:#e6e6e6"></polygon></g><g id="freepik--Pictures--inject-90"><g id="freepik--Picture--inject-90"><g id="freepik--frame--inject-90"><polygon points="309.93 66.24 308.21 67.26 273.05 46.96 274.76 45.93 309.93 66.24" style="fill:#fafafa"></polygon><polygon points="274.76 45.93 308.21 65.25 308.21 30.21 274.76 10.91 274.76 45.93" style="fill:#fff"></polygon><path d="M275.05,68.3l41.63,24V47.82l-41.63-24Zm3.23-38.92,35.17,20.3V86.73l-35.17-20.3Z" transform="translate(-5.24 -19.47)" style="fill:#ebebeb"></path><polygon points="273.05 46.96 274.76 45.93 274.76 10.91 273.05 9.91 273.05 46.96" style="fill:#e0e0e0"></polygon><polygon points="269.81 4.31 271.55 3.31 313.19 27.35 311.45 28.34 269.81 4.31" style="fill:#f5f5f5"></polygon><polygon points="313.19 27.35 311.45 28.34 311.45 72.86 313.19 71.87 313.19 27.35" style="fill:#e0e0e0"></polygon></g><g id="freepik--Land--inject-90"><polygon points="276.07 44.89 306.91 62.69 306.91 53.79 299.2 35.98 294.39 40.44 296.12 47.9 285.47 25.12 276.07 35.98 276.07 44.89" style="fill:#f0f0f0"></polygon><path d="M299.92,46.86a5,5,0,0,1,2.28,4c0,1.45-1,2-2.28,1.32a5,5,0,0,1-2.28-4C297.64,46.72,298.66,46.13,299.92,46.86Z" transform="translate(-5.24 -19.47)" style="fill:#f0f0f0"></path></g></g><g id="freepik--picture--inject-90"><g id="freepik--frame--inject-90"><polygon points="310 132.53 308.28 133.56 273.12 113.25 274.83 112.23 310 132.53" style="fill:#fafafa"></polygon><polygon points="274.83 112.23 308.28 131.54 308.28 96.51 274.83 77.21 274.83 112.23" style="fill:#fff"></polygon><path d="M275.11,134.59l41.64,24V114.11l-41.64-24Zm3.24-38.91L313.52,116V153l-35.17-20.3Z" transform="translate(-5.24 -19.47)" style="fill:#ebebeb"></path><polygon points="273.12 113.25 274.83 112.23 274.83 77.21 273.11 76.2 273.12 113.25" style="fill:#e0e0e0"></polygon><polygon points="269.88 70.6 271.62 69.61 313.26 93.64 311.52 94.64 269.88 70.6" style="fill:#f5f5f5"></polygon><polygon points="313.26 93.64 311.52 94.64 311.52 139.16 313.26 138.16 313.26 93.64" style="fill:#e0e0e0"></polygon></g><g id="freepik--land--inject-90"><polygon points="276.13 111.18 306.98 128.99 306.98 120.09 299.26 102.28 294.46 106.73 296.19 114.19 285.54 91.42 276.13 102.28 276.13 111.18" style="fill:#f0f0f0"></polygon><path d="M300,113.15a5.05,5.05,0,0,1,2.28,4c0,1.45-1,2-2.28,1.31a5,5,0,0,1-2.28-4C297.71,113,298.73,112.43,300,113.15Z" transform="translate(-5.24 -19.47)" style="fill:#f0f0f0"></path></g></g></g><g id="freepik--Shelf--inject-90"><g id="freepik--shelf--inject-90"><polygon points="144.85 49.79 113.61 31.76 13.96 89.26 13.96 92.69 45.2 110.73 144.85 53.22 144.85 49.79" style="fill:#ebebeb"></polygon><polygon points="45.2 107.3 144.85 49.79 113.61 31.76 13.96 89.26 45.2 107.3" style="fill:#fafafa"></polygon><polygon points="45.2 107.3 45.2 110.73 13.96 92.69 13.96 89.26 45.2 107.3" style="fill:#e6e6e6"></polygon><polygon points="115.28 0.47 135.53 12.17 135.53 50.71 115.28 39.01 115.28 0.47" style="fill:#e0e0e0"></polygon><path d="M140.12,32.28,120.51,21A8.25,8.25,0,0,1,116,23.48l19.44,11.21A20.06,20.06,0,0,0,140.12,32.28Z" transform="translate(-5.24 -19.47)" style="fill:#fff"></path><path d="M133.58,34.62a4.17,4.17,0,0,0,3.77,0l3.3-1.9a1.14,1.14,0,0,0,0-2.16L121.33,19.47l-.82.47,19,11c.62.35.62.93,0,1.29L136.45,34a2.5,2.5,0,0,1-2.26,0l-19-11-.93.53Z" transform="translate(-5.24 -19.47)" style="fill:#fafafa"></path><path d="M114.26,23.53V62.07l19.32,11.08a4.17,4.17,0,0,0,3.77,0l3.3-1.89a1.32,1.32,0,0,0,.78-1.08V31.64a1.32,1.32,0,0,1-.78,1.08l-3.3,1.9a4.17,4.17,0,0,1-3.77,0Z" transform="translate(-5.24 -19.47)" style="fill:#e0e0e0"></path><path d="M135.47,35.07a3.84,3.84,0,0,0,1.88-.45l3.3-1.9a1.32,1.32,0,0,0,.78-1.08V70.18a1.32,1.32,0,0,1-.78,1.08l-3.3,1.89a3.84,3.84,0,0,1-1.88.45Z" transform="translate(-5.24 -19.47)" style="fill:#f0f0f0"></path><polygon points="106.99 5.22 127.25 16.93 127.25 55.46 106.99 43.76 106.99 5.22" style="fill:#ebebeb"></polygon><path d="M131.83,37l-19.6-11.25a8.3,8.3,0,0,1-4.49,2.45l19.44,11.2A19.35,19.35,0,0,0,131.83,37Z" transform="translate(-5.24 -19.47)" style="fill:#fff"></path><path d="M125.3,39.37a4.17,4.17,0,0,0,3.77,0l3.3-1.89a1.14,1.14,0,0,0,0-2.16L113.05,24.23l-.82.47,19,11c.63.36.62.94,0,1.3l-3.07,1.74a2.5,2.5,0,0,1-2.26,0l-19-11-.92.54Z" transform="translate(-5.24 -19.47)" style="fill:#fafafa"></path><path d="M106,28.28V66.82L125.3,77.91a4.17,4.17,0,0,0,3.77,0l3.3-1.89a1.32,1.32,0,0,0,.78-1.08V36.4a1.32,1.32,0,0,1-.78,1.08l-3.3,1.9a4.24,4.24,0,0,1-3.77,0Z" transform="translate(-5.24 -19.47)" style="fill:#e0e0e0"></path><path d="M127.18,39.82a4,4,0,0,0,1.89-.44l3.3-1.9a1.32,1.32,0,0,0,.78-1.08V74.94a1.32,1.32,0,0,1-.78,1.08l-3.3,1.89a3.86,3.86,0,0,1-1.89.45Z" transform="translate(-5.24 -19.47)" style="fill:#f0f0f0"></path><polygon points="93.16 15.46 113.42 27.17 107.12 66.87 86.87 55.17 93.16 15.46" style="fill:#ebebeb"></polygon><path d="M117.85,47.19,98.24,35.94A10.74,10.74,0,0,1,93,38l19.44,11.21A26.13,26.13,0,0,0,117.85,47.19Z" transform="translate(-5.24 -19.47)" style="fill:#fff"></path><path d="M110.43,49a5.27,5.27,0,0,0,4.08.18l3.86-1.58c1.21-.49,1.35-1.38.31-2L99.35,34.55l-.95.39,19,11c.62.36.54.89-.19,1.19l-3.58,1.44a3.14,3.14,0,0,1-2.45-.11l-19-11-1.08.44Z" transform="translate(-5.24 -19.47)" style="fill:#fafafa"></path><path d="M91.1,37.92l-6.29,39.7,19.33,11.1a5.27,5.27,0,0,0,4.08.18l3.86-1.57c.6-.25.94-.6,1-1l6.29-39.7c-.06.36-.4.7-1,.95l-3.86,1.58a5.27,5.27,0,0,1-4.08-.18Z" transform="translate(-5.24 -19.47)" style="fill:#e0e0e0"></path><path d="M112.4,49.52a5.17,5.17,0,0,0,2.11-.32l3.86-1.58c.6-.25.94-.59,1-.95l-6.29,39.7c-.06.36-.4.71-1,1l-3.86,1.57a5.17,5.17,0,0,1-2.11.32Z" transform="translate(-5.24 -19.47)" style="fill:#f0f0f0"></path><g id="freepik--picture--inject-90"><g id="freepik--frame--inject-90"><polygon points="59.5 87.59 60.93 88.28 87.51 72.93 86.08 72.24 59.5 87.59" style="fill:#fafafa"></polygon><polygon points="86.08 72.24 60.79 86.84 57.12 49.02 82.4 34.43 86.08 72.24" style="fill:#fff"></polygon><path d="M91.11,49.06,59.65,67.23,64,111.84,95.45,93.67Zm1.64,43.35L66.17,107.75,62.35,68.49,88.93,53.15Z" transform="translate(-5.24 -19.47)" style="fill:#f0f0f0"></path><polygon points="87.51 72.93 86.08 72.24 82.4 34.43 83.69 33.67 87.51 72.93" style="fill:#e0e0e0"></polygon><polygon points="85.88 29.59 84.42 28.92 52.96 47.09 54.41 47.76 85.88 29.59" style="fill:#fafafa"></polygon><polygon points="52.96 47.09 54.41 47.76 58.75 92.36 57.3 91.69 52.96 47.09" style="fill:#e0e0e0"></polygon></g><g id="freepik--land--inject-90"><polygon points="84.97 71.52 61.66 84.98 61.04 78.61 65.37 59.89 69.5 66.28 68.65 71.66 75.54 51.8 84.34 65.15 84.97 71.52" style="fill:#f0f0f0"></polygon><path d="M70.25,71.49a3.29,3.29,0,0,0-1.54,2.88c.1,1,1,1.44,1.91.89a3.29,3.29,0,0,0,1.54-2.88C72.05,71.34,71.2,70.94,70.25,71.49Z" transform="translate(-5.24 -19.47)" style="fill:#f0f0f0"></path></g></g><g id="freepik--Pot--inject-90"><path id="freepik--shadow--inject-90" d="M51.64,104.44c4.31,2.48,4.31,6.52,0,9a17.26,17.26,0,0,1-15.62,0c-4.31-2.49-4.31-6.52,0-9A17.24,17.24,0,0,1,51.64,104.44Z" transform="translate(-5.24 -19.47)" style="opacity:0.05"></path><path d="M36.81,110.72c-3.75-3.84-6-13.41-2.3-16.44H53.15c3.66,3,1.46,12.6-2.29,16.43l-.11.11-.13.12a3.26,3.26,0,0,1-.33.31l-.09.07-.29.21c-.16.11-.32.22-.48.31a12.39,12.39,0,0,1-11.19,0h0a5,5,0,0,1-.49-.31l-.26-.2-.11-.09a3.11,3.11,0,0,1-.33-.29l-.15-.15Z" transform="translate(-5.24 -19.47)" style="fill:#f5f5f5"></path><path d="M51.53,92.82c4.26,2.45,4.26,6.43,0,8.89a17.05,17.05,0,0,1-15.4,0c-4.25-2.46-4.25-6.44,0-8.89A17,17,0,0,1,51.53,92.82Z" transform="translate(-5.24 -19.47)" style="fill:#fff"></path><path d="M48.52,94.56c2.58,1.49,2.58,3.91,0,5.41a10.38,10.38,0,0,1-9.37,0c-2.59-1.5-2.59-3.92,0-5.41A10.32,10.32,0,0,1,48.52,94.56Z" transform="translate(-5.24 -19.47)" style="fill:#ebebeb"></path><path d="M39.15,97.13a10.32,10.32,0,0,1,9.37,0,4.23,4.23,0,0,1,1.55,1.42A4.32,4.32,0,0,1,48.52,100a10.38,10.38,0,0,1-9.37,0,4.32,4.32,0,0,1-1.55-1.42A4.23,4.23,0,0,1,39.15,97.13Z" transform="translate(-5.24 -19.47)" style="fill:#e0e0e0"></path><path d="M48,98.55A21.46,21.46,0,0,0,51.34,94c1.56-2.77,1.85-6.47,1-6.93s-4.1,3.24-4.1,3.24a20.14,20.14,0,0,0,.34-4.72c-.13-2.47-.73-4.71-1.44-5.16s-2.28,2.66-3,4.91-1.08,4.11-1.08,4.11a35.5,35.5,0,0,0-1.22-5.19c-.82-2.34-1.56-2.87-2.14-2.64s-1,1.33-1.13,4.44a30.58,30.58,0,0,0,.14,4.46s-1.16-1.27-2.45-2.51-2-1.55-2.43-1.29-.51,2.37,1.68,6.34a22,22,0,0,0,4.14,5.45S42.76,100.5,48,98.55Z" transform="translate(-5.24 -19.47)" style="fill:#ebebeb"></path></g></g></g><g id="freepik--Drawer--inject-90"><g id="freepik--drawer--inject-90"><polygon points="81.95 374.76 76.99 399.39 72.16 402.18 67.38 399.42 62.37 374.76 72.16 369.11 81.95 374.76" style="fill:#e0e0e0"></polygon><polygon points="81.95 374.76 76.99 399.39 72.16 402.18 67.38 399.42 62.37 374.76 72.16 369.11 81.95 374.76" style="opacity:0.05"></polygon><polygon points="72.16 402.18 72.16 380.41 81.95 374.76 76.99 399.39 72.16 402.18" style="fill:#ebebeb"></polygon><polygon points="81.95 374.76 78.75 390.67 72.16 394.47 65.61 390.68 62.37 374.76 72.16 369.11 81.95 374.76" style="opacity:0.05"></polygon><polygon points="38.9 349.9 33.94 374.53 29.11 377.32 24.33 374.56 19.32 349.9 29.11 344.25 38.9 349.9" style="fill:#e0e0e0"></polygon><polygon points="38.9 349.9 33.94 374.53 29.11 377.32 24.33 374.56 19.32 349.9 29.11 344.25 38.9 349.9" style="opacity:0.05"></polygon><polygon points="29.11 377.32 29.11 355.56 38.9 349.9 33.94 374.53 29.11 377.32" style="fill:#ebebeb"></polygon><polygon points="38.9 349.9 35.69 365.81 29.11 369.61 22.55 365.83 19.32 349.9 29.11 344.25 38.9 349.9" style="opacity:0.05"></polygon><polygon points="209.31 301.23 204.34 325.86 199.52 328.65 194.73 325.88 189.73 301.23 199.52 295.58 209.31 301.23" style="opacity:0.05"></polygon><polygon points="199.52 328.65 199.52 306.88 209.31 301.23 204.34 325.86 199.52 328.65" style="fill:#ebebeb"></polygon><polygon points="209.31 301.23 206.1 317.14 199.52 320.94 192.96 317.15 189.73 301.23 199.52 295.58 209.31 301.23" style="opacity:0.05"></polygon><g id="freepik--Cabinet--inject-90"><g id="freepik--cabinet--inject-90"><polygon points="72.16 390.49 18.81 359.69 18.81 244.21 72.16 275.01 72.16 390.49" style="fill:#e0e0e0"></polygon><polygon points="72.16 275.01 212.08 194.23 212.08 309.71 72.16 390.49 72.16 275.01" style="fill:#ebebeb"></polygon><polygon points="212.08 194.23 72.16 275.01 18.81 244.21 158.73 163.43 212.08 194.23" style="fill:#f5f5f5"></polygon><polygon points="79.78 332.22 204.46 260.24 204.46 302.62 205.86 303.43 81.18 375.41 79.78 374.6 79.78 332.22" style="fill:#e0e0e0"></polygon><polygon points="81.19 333.03 205.86 261.05 205.86 303.43 81.18 375.41 81.19 333.03" style="fill:#f5f5f5"></polygon><path d="M146.36,325.91l10.37-6c1.35-.78,2.44-.42,2.44.79a4.87,4.87,0,0,1-2.44,3.61l-10.37,6c-1.35.77-2.44.42-2.44-.8A4.86,4.86,0,0,1,146.36,325.91Z" transform="translate(-5.24 -19.47)" style="fill:#e0e0e0"></path><polygon points="79.78 281.05 204.46 209.06 204.46 251.45 205.86 252.26 81.18 324.24 79.78 323.43 79.78 281.05" style="fill:#e0e0e0"></polygon><polygon points="81.18 281.86 205.86 209.88 205.86 252.26 81.18 324.24 81.18 281.86" style="fill:#f5f5f5"></polygon><path d="M146.36,274.73l10.37-6c1.34-.78,2.44-.43,2.44.79a4.9,4.9,0,0,1-2.44,3.61l-10.37,6c-1.35.78-2.44.43-2.44-.79A4.89,4.89,0,0,1,146.36,274.73Z" transform="translate(-5.24 -19.47)" style="fill:#e0e0e0"></path></g></g><g id="freepik--pot--inject-90"><path d="M160,217.17c6.47,3.73,6.47,9.79,0,13.52s-17,3.74-23.42,0-6.47-9.79,0-13.52S153.49,213.43,160,217.17Z" transform="translate(-5.24 -19.47)" style="fill:#e0e0e0"></path><path d="M138,224.76c-5.63-5.74-8.94-20.09-3.45-24.65h28c5.49,4.55,2.18,18.9-3.45,24.65l-.15.16-.19.19-.51.45-.14.11-.42.32a6.34,6.34,0,0,1-.73.46c-4.63,2.68-12.15,2.68-16.78,0h0a8.21,8.21,0,0,1-.73-.47c-.14-.09-.27-.2-.4-.3l-.17-.13-.49-.43-.22-.22Z" transform="translate(-5.24 -19.47)" style="fill:#ebebeb"></path><path d="M160,198.27c6.38,3.68,6.38,9.65,0,13.34s-16.72,3.68-23.1,0-6.38-9.66,0-13.34S153.65,194.59,160,198.27Z" transform="translate(-5.24 -19.47)" style="fill:#fafafa"></path><path d="M155.51,200.88c3.88,2.24,3.88,5.88,0,8.12a15.55,15.55,0,0,1-14.06,0c-3.88-2.24-3.88-5.88,0-8.12A15.55,15.55,0,0,1,155.51,200.88Z" transform="translate(-5.24 -19.47)" style="fill:#f5f5f5"></path><path d="M141.45,204.73a15.55,15.55,0,0,1,14.06,0,6.64,6.64,0,0,1,2.32,2.13,6.56,6.56,0,0,1-2.32,2.14,15.55,15.55,0,0,1-14.06,0,6.56,6.56,0,0,1-2.32-2.14A6.64,6.64,0,0,1,141.45,204.73Z" transform="translate(-5.24 -19.47)" style="fill:#ebebeb"></path><path d="M154.65,206.86a31.5,31.5,0,0,0,5.08-6.75c2.35-4.15,2.78-9.71,1.57-10.4s-6.15,4.86-6.15,4.86a30.52,30.52,0,0,0,.52-7.08c-.21-3.7-1.11-7.06-2.17-7.74s-3.43,4-4.44,7.37-1.63,6.15-1.63,6.15a51.92,51.92,0,0,0-1.82-7.77c-1.23-3.51-2.35-4.3-3.21-4s-1.44,2-1.69,6.66a46.66,46.66,0,0,0,.2,6.69s-1.74-1.92-3.67-3.77c-2.12-2-3-2.33-3.64-1.94s-.77,3.57,2.51,9.51a33.35,33.35,0,0,0,6.21,8.17S146.87,209.8,154.65,206.86Z" transform="translate(-5.24 -19.47)" style="fill:#e0e0e0"></path></g><g id="freepik--picture--inject-90"><g id="freepik--frame--inject-90"><polygon points="50.86 246.63 52.94 247.63 91.42 225.41 89.34 224.41 50.86 246.63" style="fill:#fafafa"></polygon><polygon points="89.34 224.41 52.74 245.54 47.41 190.78 84.02 169.67 89.34 224.41" style="fill:#fff"></polygon><path d="M94.29,182.13l-45.56,26.3L55,273l45.56-26.3Zm2.37,62.75L58.18,267.1l-5.53-56.84L91.13,188Z" transform="translate(-5.24 -19.47)" style="fill:#f0f0f0"></path><polygon points="91.42 225.41 89.34 224.41 84.02 169.67 85.89 168.57 91.42 225.41" style="fill:#e0e0e0"></polygon><polygon points="89.06 162.66 86.95 161.68 41.39 187.99 43.5 188.96 89.06 162.66" style="fill:#fafafa"></polygon><polygon points="41.39 187.99 43.5 188.96 49.78 253.54 47.67 252.56 41.39 187.99" style="fill:#e0e0e0"></polygon></g><g id="freepik--land--inject-90"><polygon points="87.73 223.37 53.99 242.85 53.09 233.63 59.37 206.53 65.35 215.78 64.11 223.57 74.09 194.82 86.84 214.14 87.73 223.37" style="fill:#f0f0f0"></polygon><path d="M64.08,214.59a4.77,4.77,0,0,0-2.23,4.17c.15,1.51,1.39,2.09,2.76,1.29a4.73,4.73,0,0,0,2.23-4.17C66.7,214.38,65.46,213.8,64.08,214.59Z" transform="translate(-5.24 -19.47)" style="fill:#f0f0f0"></path></g></g></g></g><g id="freepik--Boxes--inject-90"><g id="freepik--boxes--inject-90"><g id="freepik--Box--inject-90"><polygon points="312.68 337.9 312.68 301.2 360.35 273.68 360.35 310.38 312.68 337.9" style="fill:#f0f0f0"></polygon><polygon points="312.68 301.2 246.74 263.18 246.74 299.88 312.68 337.9 312.68 301.2" style="fill:#e6e6e6"></polygon><polygon points="246.32 262.36 294.4 234.59 360.76 272.85 312.68 300.63 246.32 262.36" style="fill:#fafafa"></polygon><path d="M299.64,254.64,365,292.33l-47.08,27.19-65.35-37.69,47.08-27.19m0-1.16-49.08,28.35,67.35,38.85L367,292.33l-67.35-38.85Z" transform="translate(-5.24 -19.47)" style="fill:#ebebeb"></path><polygon points="312.68 301.2 312.68 310.38 361.76 282.04 361.76 272.85 312.68 301.2" style="fill:#f0f0f0"></polygon><polygon points="245.32 262.36 312.68 301.2 312.68 310.38 245.32 271.54 245.32 262.36" style="fill:#e6e6e6"></polygon><path d="M317.91,329.85v2l47.67-27.53v-2Zm-65.94-36,65.94,38v-2l-65.94-38Z" transform="translate(-5.24 -19.47)" style="opacity:0.1"></path><path d="M333.6,326.25l16.29-9.4c.7-.4,1.27-.08,1.27.73v9.63a2.8,2.8,0,0,1-1.27,2.2l-16.29,9.4c-.7.41-1.27.08-1.27-.73v-9.63A2.82,2.82,0,0,1,333.6,326.25Z" transform="translate(-5.24 -19.47)" style="fill:#e0e0e0"></path><path d="M333.6,326.25l16.29-9.4c.7-.4,1.27-.08,1.27.73v9.63a2.8,2.8,0,0,1-1.27,2.2l-16.29,9.4c-.7.41-1.27.08-1.27-.73v-9.63A2.82,2.82,0,0,1,333.6,326.25Z" transform="translate(-5.24 -19.47)" style="opacity:0.1"></path><path d="M334.65,327.34l14.19-8.19c.47-.27.85,0,.85.49v7.21a1.86,1.86,0,0,1-.85,1.47l-14.19,8.2c-.47.27-.85.05-.85-.49v-7.22A1.87,1.87,0,0,1,334.65,327.34Z" transform="translate(-5.24 -19.47)" style="fill:#f5f5f5"></path><g style="opacity:0.2"><path d="M335,329.25a.22.22,0,0,1-.18-.1.21.21,0,0,1,.08-.28l13.4-7.74a.21.21,0,0,1,.29.07.21.21,0,0,1-.08.28l-13.4,7.74A.23.23,0,0,1,335,329.25Z" transform="translate(-5.24 -19.47)"></path><path d="M335,331a.2.2,0,0,1-.18-.1.21.21,0,0,1,.08-.28l13.4-7.74a.22.22,0,0,1,.29.07.22.22,0,0,1-.08.29L335.15,331A.23.23,0,0,1,335,331Z" transform="translate(-5.24 -19.47)"></path><path d="M335,332.8a.21.21,0,0,1-.1-.39l13.4-7.74a.21.21,0,0,1,.29.08.21.21,0,0,1-.08.28l-13.4,7.74A.23.23,0,0,1,335,332.8Z" transform="translate(-5.24 -19.47)"></path><path d="M335,334.57a.21.21,0,0,1-.18-.11.21.21,0,0,1,.08-.28l13.4-7.74a.22.22,0,0,1,.29.08.21.21,0,0,1-.08.28l-13.4,7.74A.23.23,0,0,1,335,334.57Z" transform="translate(-5.24 -19.47)"></path></g></g><g id="freepik--box--inject-90"><polygon points="249.24 260.1 315.42 298.27 360.59 272.18 294.4 234.01 249.24 260.1" style="opacity:0.1"></polygon><g id="freepik--box--inject-90"><polygon points="315.82 295.37 315.82 258.67 363.49 231.15 363.49 267.85 315.82 295.37" style="fill:#f0f0f0"></polygon><polygon points="315.82 258.67 249.88 220.65 249.88 257.35 315.82 295.37 315.82 258.67" style="fill:#e6e6e6"></polygon><polygon points="249.47 219.83 297.55 192.06 363.9 230.32 315.82 258.1 249.47 219.83" style="fill:#fafafa"></polygon><path d="M302.79,212.11l65.35,37.69L321.06,277,255.71,239.3l47.08-27.19m0-1.16L253.7,239.3l67.36,38.85,49.08-28.35L302.79,211Z" transform="translate(-5.24 -19.47)" style="fill:#ebebeb"></path><polygon points="315.82 258.67 315.82 267.85 364.9 239.51 364.9 230.32 315.82 258.67" style="fill:#f0f0f0"></polygon><polygon points="248.47 219.83 315.82 258.67 315.82 267.85 248.47 229.01 248.47 219.83" style="fill:#e6e6e6"></polygon><path d="M321.06,287.32v2l47.67-27.53v-2Zm-65.94-36,65.94,38v-2l-65.94-38Z" transform="translate(-5.24 -19.47)" style="opacity:0.1"></path><path d="M336.75,283.72l16.29-9.4c.7-.4,1.27-.08,1.27.73v9.63a2.8,2.8,0,0,1-1.27,2.2l-16.29,9.4c-.7.41-1.27.08-1.27-.73v-9.63A2.82,2.82,0,0,1,336.75,283.72Z" transform="translate(-5.24 -19.47)" style="fill:#e0e0e0"></path><path d="M336.75,283.72l16.29-9.4c.7-.4,1.27-.08,1.27.73v9.63a2.8,2.8,0,0,1-1.27,2.2l-16.29,9.4c-.7.41-1.27.08-1.27-.73v-9.63A2.82,2.82,0,0,1,336.75,283.72Z" transform="translate(-5.24 -19.47)" style="opacity:0.1"></path><path d="M337.79,284.81l14.2-8.19c.47-.27.85-.05.85.49v7.21a1.86,1.86,0,0,1-.85,1.47l-14.2,8.2c-.46.27-.84.05-.84-.49v-7.22A1.89,1.89,0,0,1,337.79,284.81Z" transform="translate(-5.24 -19.47)" style="fill:#f5f5f5"></path><g style="opacity:0.2"><path d="M338.19,286.72a.22.22,0,0,1-.18-.1.21.21,0,0,1,.08-.28l13.4-7.74a.2.2,0,0,1,.21.35l-13.41,7.74A.17.17,0,0,1,338.19,286.72Z" transform="translate(-5.24 -19.47)"></path><path d="M338.19,288.49a.2.2,0,0,1-.18-.1.21.21,0,0,1,.08-.28l13.4-7.74a.21.21,0,0,1,.28.07.21.21,0,0,1-.07.29l-13.41,7.74Z" transform="translate(-5.24 -19.47)"></path><path d="M338.19,290.27a.21.21,0,0,1-.1-.39l13.4-7.74a.21.21,0,0,1,.21.36l-13.41,7.74A.17.17,0,0,1,338.19,290.27Z" transform="translate(-5.24 -19.47)"></path><path d="M338.19,292a.21.21,0,0,1-.18-.11.21.21,0,0,1,.08-.28l13.4-7.74a.21.21,0,0,1,.28.08.2.2,0,0,1-.07.28L338.29,292A.17.17,0,0,1,338.19,292Z" transform="translate(-5.24 -19.47)"></path></g></g></g></g></g><g id="freepik--Plant--inject-90"><g id="freepik--plant--inject-90"><g id="freepik--plant--inject-90"><g id="freepik--pot--inject-90"><path d="M58.29,448.34c-8.46-8.73-13.43-44.34-5.18-51.26h42c8.25,6.92,3.29,42.52-5.17,51.25l-.23.24-.29.29c-.24.23-.49.46-.76.69l-.21.16c-.2.16-.41.33-.64.49a10,10,0,0,1-1.09.7c-7,4.07-18.24,4.07-25.2,0h0c-.37-.21-.73-.45-1.1-.71-.21-.15-.4-.3-.59-.45l-.25-.2c-.26-.22-.51-.44-.74-.67l-.33-.33A1.89,1.89,0,0,1,58.29,448.34Z" transform="translate(-5.24 -19.47)" style="fill:#37474f"></path><path d="M91.46,394.29c9.58,5.59,9.58,14.66,0,20.26s-25.12,5.59-34.7,0-9.58-14.67,0-20.26S81.88,388.7,91.46,394.29Z" transform="translate(-5.24 -19.47)" style="fill:#455a64"></path><path d="M86.85,397c7,4.11,7,10.77,0,14.88s-18.45,4.1-25.48,0-7-10.77,0-14.88S79.81,392.87,86.85,397Z" transform="translate(-5.24 -19.47)" style="fill:#263238"></path><path d="M61.37,404c7-4.11,18.44-4.11,25.48,0A11.72,11.72,0,0,1,91.06,408a11.9,11.9,0,0,1-4.21,3.91c-7,4.1-18.45,4.1-25.48,0A11.85,11.85,0,0,1,57.15,408,11.68,11.68,0,0,1,61.37,404Z" transform="translate(-5.24 -19.47)" style="fill:#fafafa"></path></g><path d="M71.28,348c-3.21,3.49-12.16,4.45-15.86-5-3.47-8.84-7.22-17.22-8.29-20.46a3.33,3.33,0,0,1,2.14-4.31s.25-4.86,8.48-1.57,14,8.29,17.62,16.36S76.79,347,71.28,348Z" transform="translate(-5.24 -19.47)" style="fill:#0070F3"></path><path d="M71.28,348c-3.21,3.49-12.16,4.45-15.86-5-3.47-8.84-7.22-17.22-8.29-20.46a3.33,3.33,0,0,1,2.14-4.31s.25-4.86,8.48-1.57,14,8.29,17.62,16.36S76.79,347,71.28,348Z" transform="translate(-5.24 -19.47)" style="fill:#fff;opacity:0.45"></path><path d="M74.84,360.5a42.86,42.86,0,0,0-.71-4.92,67,67,0,0,0-2.73-9.48,69.69,69.69,0,0,0-9.53-17.59,60,60,0,0,0-7.49-8.5c-.09-.08-.15.11-.1.17A74.92,74.92,0,0,1,66,336.39a75.85,75.85,0,0,1,6.79,18.39c.4,1.79.79,3.59,1.12,5.39s.52,3.69.83,5.53c0,.18.31.29.33,0A34,34,0,0,0,74.84,360.5Z" transform="translate(-5.24 -19.47)" style="fill:#0070F3"></path><path d="M74.84,360.5a42.86,42.86,0,0,0-.71-4.92,67,67,0,0,0-2.73-9.48,69.69,69.69,0,0,0-9.53-17.59,60,60,0,0,0-7.49-8.5c-.09-.08-.15.11-.1.17A74.92,74.92,0,0,1,66,336.39a75.85,75.85,0,0,1,6.79,18.39c.4,1.79.79,3.59,1.12,5.39s.52,3.69.83,5.53c0,.18.31.29.33,0A34,34,0,0,0,74.84,360.5Z" transform="translate(-5.24 -19.47)" style="opacity:0.30000000000000004"></path><path d="M77.59,345.6c-7.39,2.28-12.87-3.48-11-12.53S78,314,81.61,316.68c2.24-2.24,7.17-1.43,9.5,5.91S91.32,348.8,77.59,345.6Z" transform="translate(-5.24 -19.47)" style="fill:#0070F3"></path><path d="M77.59,345.6c-7.39,2.28-12.87-3.48-11-12.53S78,314,81.61,316.68c2.24-2.24,7.17-1.43,9.5,5.91S91.32,348.8,77.59,345.6Z" transform="translate(-5.24 -19.47)" style="fill:#fff;opacity:0.25"></path><path d="M81.93,322.19A98.5,98.5,0,0,0,77,338.44a157.62,157.62,0,0,0-2.86,17,267.17,267.17,0,0,0-1.48,33.35c0,3.08.07,6.15.13,9.23s0,6.37.28,9.52c.1,1.21,1.82.89,1.84-.22.11-5.54-.19-11.1-.25-16.64s0-11,.1-16.43a232.31,232.31,0,0,1,3-33.31c.53-3.06,1.12-6.13,1.83-9.15.75-3.19,1.68-6.33,2.51-9.49C82.15,322.18,82,322,81.93,322.19Z" transform="translate(-5.24 -19.47)" style="fill:#0070F3"></path><path d="M81.93,322.19A98.5,98.5,0,0,0,77,338.44a157.62,157.62,0,0,0-2.86,17,267.17,267.17,0,0,0-1.48,33.35c0,3.08.07,6.15.13,9.23s0,6.37.28,9.52c.1,1.21,1.82.89,1.84-.22.11-5.54-.19-11.1-.25-16.64s0-11,.1-16.43a232.31,232.31,0,0,1,3-33.31c.53-3.06,1.12-6.13,1.83-9.15.75-3.19,1.68-6.33,2.51-9.49C82.15,322.18,82,322,81.93,322.19Z" transform="translate(-5.24 -19.47)" style="opacity:0.30000000000000004"></path><path d="M65.57,372.12c-3.23,3.66-10.63,3.33-15.59-3.19s-7.94-31-1-29.48C50.5,336.18,69.8,344,72.27,360,74.07,371.67,65.57,372.12,65.57,372.12Z" transform="translate(-5.24 -19.47)" style="fill:#0070F3"></path><path d="M65.57,372.12c-3.23,3.66-10.63,3.33-15.59-3.19s-7.94-31-1-29.48C50.5,336.18,69.8,344,72.27,360,74.07,371.67,65.57,372.12,65.57,372.12Z" transform="translate(-5.24 -19.47)" style="fill:#fff;opacity:0.25"></path><path d="M71.34,383.71a35.51,35.51,0,0,0-1-4.47c-.81-3-1.77-6-2.87-8.87a93.88,93.88,0,0,0-8.62-16.92,84.37,84.37,0,0,0-6.12-8.65c-.07-.07-.12.1-.09.15,1.73,2.51,3.47,5,5,7.62A94.42,94.42,0,0,1,62.09,361a116.71,116.71,0,0,1,6.36,17.07c.47,1.66.86,3.35,1.35,5s1.16,3.41,1.59,5.15c.06.25.38.34.35,0C71.59,386.71,71.54,385.21,71.34,383.71Z" transform="translate(-5.24 -19.47)" style="fill:#0070F3"></path><path d="M71.34,383.71a35.51,35.51,0,0,0-1-4.47c-.81-3-1.77-6-2.87-8.87a93.88,93.88,0,0,0-8.62-16.92,84.37,84.37,0,0,0-6.12-8.65c-.07-.07-.12.1-.09.15,1.73,2.51,3.47,5,5,7.62A94.42,94.42,0,0,1,62.09,361a116.71,116.71,0,0,1,6.36,17.07c.47,1.66.86,3.35,1.35,5s1.16,3.41,1.59,5.15c.06.25.38.34.35,0C71.59,386.71,71.54,385.21,71.34,383.71Z" transform="translate(-5.24 -19.47)" style="opacity:0.30000000000000004"></path><path d="M77.38,368.5c-4.22-1-4.43-6,.85-12.26s18.58-8.94,19.21-6.32c3,0,3,9.26-3.59,17.77S77.78,374.22,77.38,368.5Z" transform="translate(-5.24 -19.47)" style="fill:#0070F3"></path><path d="M77.38,368.5c-4.22-1-4.43-6,.85-12.26s18.58-8.94,19.21-6.32c3,0,3,9.26-3.59,17.77S77.78,374.22,77.38,368.5Z" transform="translate(-5.24 -19.47)" style="fill:#fff;opacity:0.25"></path><path d="M85.66,359.45a33.44,33.44,0,0,0-12.23,15.77c-.14.37.49.9.64.5a38.79,38.79,0,0,1,11.61-16.19S85.71,359.41,85.66,359.45Z" transform="translate(-5.24 -19.47)" style="fill:#0070F3"></path><path d="M85.66,359.45a33.44,33.44,0,0,0-12.23,15.77c-.14.37.49.9.64.5a38.79,38.79,0,0,1,11.61-16.19S85.71,359.41,85.66,359.45Z" transform="translate(-5.24 -19.47)" style="opacity:0.30000000000000004"></path><path d="M82.21,399.4c-5.85,2.36-3.35,9.33,2.37,14.62a26.07,26.07,0,0,0,17.8,6.41c3.93-.28,4.93-.82,4.93-.82s.63-6,0-9.68a18.7,18.7,0,0,0-13.79-14.85C84.4,392.61,82.21,395.91,82.21,399.4Z" transform="translate(-5.24 -19.47)" style="fill:#0070F3"></path><path d="M82.21,399.4c-5.85,2.36-3.35,9.33,2.37,14.62a26.07,26.07,0,0,0,17.8,6.41c3.93-.28,4.93-.82,4.93-.82s.63-6,0-9.68a18.7,18.7,0,0,0-13.79-14.85C84.4,392.61,82.21,395.91,82.21,399.4Z" transform="translate(-5.24 -19.47)" style="fill:#fff;opacity:0.45"></path><path d="M98.4,409.68a46.91,46.91,0,0,0-9-8.28c-3.33-2.2-7.77-4.07-11.76-2.7-1.55.53-4,2.07-3.67,4,0,.19.37.66.6.4a16,16,0,0,1,2.11-2.46,6.23,6.23,0,0,1,3.14-1.19,14.49,14.49,0,0,1,8.2,1.87c4,2.09,7.15,5.35,10.3,8.47C98.39,409.81,98.43,409.71,98.4,409.68Z" transform="translate(-5.24 -19.47)" style="fill:#0070F3"></path><path d="M98.4,409.68a46.91,46.91,0,0,0-9-8.28c-3.33-2.2-7.77-4.07-11.76-2.7-1.55.53-4,2.07-3.67,4,0,.19.37.66.6.4a16,16,0,0,1,2.11-2.46,6.23,6.23,0,0,1,3.14-1.19,14.49,14.49,0,0,1,8.2,1.87c4,2.09,7.15,5.35,10.3,8.47C98.39,409.81,98.43,409.71,98.4,409.68Z" transform="translate(-5.24 -19.47)" style="opacity:0.30000000000000004"></path><path d="M59.93,369.44c.56-2.66-3.28-9-15.28-10.26s-21,3.86-22.79,6.19-2.73,4.77-.55,5.37,9.67,1.34,14.59,3.61,14.92,8.95,21.75,7S63.33,372.09,59.93,369.44Z" transform="translate(-5.24 -19.47)" style="fill:#0070F3"></path><path d="M59.93,369.44c.56-2.66-3.28-9-15.28-10.26s-21,3.86-22.79,6.19-2.73,4.77-.55,5.37,9.67,1.34,14.59,3.61,14.92,8.95,21.75,7S63.33,372.09,59.93,369.44Z" transform="translate(-5.24 -19.47)" style="fill:#fff;opacity:0.45"></path><path d="M69.05,378.73C64,368.28,51,365.09,40.3,365.15a41.89,41.89,0,0,0-10.39,1.35c-.05,0-.06.13,0,.12a55.25,55.25,0,0,1,17.36-.18c5.66.92,11.21,2.68,15.87,6.12a21.56,21.56,0,0,1,5.67,6.36C69,379.18,69.15,378.94,69.05,378.73Z" transform="translate(-5.24 -19.47)" style="fill:#0070F3"></path><path d="M69.05,378.73C64,368.28,51,365.09,40.3,365.15a41.89,41.89,0,0,0-10.39,1.35c-.05,0-.06.13,0,.12a55.25,55.25,0,0,1,17.36-.18c5.66.92,11.21,2.68,15.87,6.12a21.56,21.56,0,0,1,5.67,6.36C69,379.18,69.15,378.94,69.05,378.73Z" transform="translate(-5.24 -19.47)" style="opacity:0.30000000000000004"></path><path d="M87.88,355.44c-.16,4.2,5.75,6.63,11.46,3s11.7-7.16,17-8.53,7.8-5.68,6.13-7.77-4.33-7.36-18.24-5.64-18.85,8-20.76,12.42S85.78,356.65,87.88,355.44Z" transform="translate(-5.24 -19.47)" style="fill:#0070F3"></path><path d="M87.88,355.44c-.16,4.2,5.75,6.63,11.46,3s11.7-7.16,17-8.53,7.8-5.68,6.13-7.77-4.33-7.36-18.24-5.64-18.85,8-20.76,12.42S85.78,356.65,87.88,355.44Z" transform="translate(-5.24 -19.47)" style="fill:#fff;opacity:0.45"></path><path d="M110.53,342.13a14.93,14.93,0,0,0-6,.63,28.8,28.8,0,0,0-5.11,1.83,28.08,28.08,0,0,0-8.7,6.3,24.63,24.63,0,0,0-2,2.36,10,10,0,0,0-1.48,2.44c-.1.27.3.72.55.44.69-.79,1.2-1.76,1.85-2.6A27.36,27.36,0,0,1,91.94,351a28.05,28.05,0,0,1,5.36-4.23,32.93,32.93,0,0,1,5.94-2.89,35.42,35.42,0,0,1,3.47-1,12.12,12.12,0,0,1,3.78-.53C110.56,342.29,110.59,342.14,110.53,342.13Z" transform="translate(-5.24 -19.47)" style="fill:#0070F3"></path><path d="M110.53,342.13a14.93,14.93,0,0,0-6,.63,28.8,28.8,0,0,0-5.11,1.83,28.08,28.08,0,0,0-8.7,6.3,24.63,24.63,0,0,0-2,2.36,10,10,0,0,0-1.48,2.44c-.1.27.3.72.55.44.69-.79,1.2-1.76,1.85-2.6A27.36,27.36,0,0,1,91.94,351a28.05,28.05,0,0,1,5.36-4.23,32.93,32.93,0,0,1,5.94-2.89,35.42,35.42,0,0,1,3.47-1,12.12,12.12,0,0,1,3.78-.53C110.56,342.29,110.59,342.14,110.53,342.13Z" transform="translate(-5.24 -19.47)" style="opacity:0.30000000000000004"></path><path d="M77.89,378.09c-2-2-7.24-1.5-9.75,4.26s2.75,12.07,3.34,13.84c2.42-1.39,4.3-.56,8.56-1.39a10.63,10.63,0,0,0,8.16-10.6C87.92,378.92,85.69,375.44,77.89,378.09Z" transform="translate(-5.24 -19.47)" style="fill:#0070F3"></path><path d="M77.89,378.09c-2-2-7.24-1.5-9.75,4.26s2.75,12.07,3.34,13.84c2.42-1.39,4.3-.56,8.56-1.39a10.63,10.63,0,0,0,8.16-10.6C87.92,378.92,85.69,375.44,77.89,378.09Z" transform="translate(-5.24 -19.47)" style="fill:#fff;opacity:0.45"></path><path d="M77.82,377.5a8,8,0,0,0-2.59,2.68,14.55,14.55,0,0,0-1.67,3.23,13.73,13.73,0,0,0-.74,7.34c0,.09.1,0,.09-.05a14.57,14.57,0,0,1,3-10.17,16.9,16.9,0,0,1,1.18-1.36,7.35,7.35,0,0,0,1.12-1.11C78.34,377.83,78.11,377.36,77.82,377.5Z" transform="translate(-5.24 -19.47)" style="fill:#0070F3"></path><path d="M77.82,377.5a8,8,0,0,0-2.59,2.68,14.55,14.55,0,0,0-1.67,3.23,13.73,13.73,0,0,0-.74,7.34c0,.09.1,0,.09-.05a14.57,14.57,0,0,1,3-10.17,16.9,16.9,0,0,1,1.18-1.36,7.35,7.35,0,0,0,1.12-1.11C78.34,377.83,78.11,377.36,77.82,377.5Z" transform="translate(-5.24 -19.47)" style="opacity:0.30000000000000004"></path><path d="M68.71,389.76c-.18-4.29-4.83-7.68-11.44-9.65a18,18,0,0,0-18.59,4.94c-4.83,5.25-7.33,9.72-5.36,11s10.72,4.47,16.44,6.26S63,404.6,68.71,401.2,74.07,391.91,68.71,389.76Z" transform="translate(-5.24 -19.47)" style="fill:#0070F3"></path><path d="M68.71,389.76c-.18-4.29-4.83-7.68-11.44-9.65a18,18,0,0,0-18.59,4.94c-4.83,5.25-7.33,9.72-5.36,11s10.72,4.47,16.44,6.26S63,404.6,68.71,401.2,74.07,391.91,68.71,389.76Z" transform="translate(-5.24 -19.47)" style="fill:#fff;opacity:0.25"></path><path d="M69.08,389.28a18.26,18.26,0,0,0-7.19-1.92,33.34,33.34,0,0,0-7.2.09A46.34,46.34,0,0,0,47.24,389c-1.27.38-2.54.8-3.78,1.26A24.88,24.88,0,0,0,40,391.7s-.07.16,0,.15c1.22-.25,2.4-.73,3.58-1.09s2.56-.77,3.86-1.11a50.79,50.79,0,0,1,7.34-1.39,32.74,32.74,0,0,1,7.47,0A44,44,0,0,1,69,390C69.48,390.08,69.34,389.43,69.08,389.28Z" transform="translate(-5.24 -19.47)" style="fill:#0070F3"></path><path d="M69.08,389.28a18.26,18.26,0,0,0-7.19-1.92,33.34,33.34,0,0,0-7.2.09A46.34,46.34,0,0,0,47.24,389c-1.27.38-2.54.8-3.78,1.26A24.88,24.88,0,0,0,40,391.7s-.07.16,0,.15c1.22-.25,2.4-.73,3.58-1.09s2.56-.77,3.86-1.11a50.79,50.79,0,0,1,7.34-1.39,32.74,32.74,0,0,1,7.47,0A44,44,0,0,1,69,390C69.48,390.08,69.34,389.43,69.08,389.28Z" transform="translate(-5.24 -19.47)" style="opacity:0.30000000000000004"></path><path d="M82.36,383.37c-4.73-3.75-3.15-12.76,13.4-13.25s28.36,3.84,27.84,9.16c2.66,2.67,1.31,10.13-12.09,12.46S79,392.91,82.36,383.37Z" transform="translate(-5.24 -19.47)" style="fill:#0070F3"></path><path d="M82.36,383.37c-4.73-3.75-3.15-12.76,13.4-13.25s28.36,3.84,27.84,9.16c2.66,2.67,1.31,10.13-12.09,12.46S79,392.91,82.36,383.37Z" transform="translate(-5.24 -19.47)" style="fill:#fff;opacity:0.25"></path><path d="M115.81,379.34a71,71,0,0,0-14.78-.86,57,57,0,0,0-13.65,1.57,19.91,19.91,0,0,0-3.33,1.24c-.49.23-1,.49-1.45.77s-.79.43-.93.87a.46.46,0,0,0,.5.53A18.1,18.1,0,0,0,85.06,382a24.44,24.44,0,0,1,2.86-1,35.22,35.22,0,0,1,5.75-1.13,100.32,100.32,0,0,1,14-.77c2.72,0,5.43.24,8.14.45C115.86,379.54,115.89,379.36,115.81,379.34Z" transform="translate(-5.24 -19.47)" style="fill:#0070F3"></path><path d="M115.81,379.34a71,71,0,0,0-14.78-.86,57,57,0,0,0-13.65,1.57,19.91,19.91,0,0,0-3.33,1.24c-.49.23-1,.49-1.45.77s-.79.43-.93.87a.46.46,0,0,0,.5.53A18.1,18.1,0,0,0,85.06,382a24.44,24.44,0,0,1,2.86-1,35.22,35.22,0,0,1,5.75-1.13,100.32,100.32,0,0,1,14-.77c2.72,0,5.43.24,8.14.45C115.86,379.54,115.89,379.36,115.81,379.34Z" transform="translate(-5.24 -19.47)" style="opacity:0.30000000000000004"></path></g></g></g><g id="freepik--Device--inject-90"><g id="freepik--Mobile--inject-90"><g id="freepik--mobile--inject-90"><path d="M275,366.9,253.69,54.4c-.52-7.59-4.73-9.6-8.48-11.46s-9.78-2.91-14.73,0L103.74,116.06c-4.95,2.86-8.66,9.64-8.28,15.14l21.3,312.49c.38,5.5,4.32,8.66,8.07,10.52s10.19,3.85,15.14,1L266.72,382C271.67,379.17,275.52,374.55,275,366.9Z" transform="translate(-5.24 -19.47)" style="fill:#37474f"></path><path d="M266.82,369.87,136.49,445.11,115.14,131.34l-17.54-8.7a16.1,16.1,0,0,0-2.14,8.56l21.3,312.49c.38,5.5,4.32,8.66,8.07,10.52s10.19,3.85,15.14,1L266.72,382a15.86,15.86,0,0,0,7.48-8.5l-.54-.27Z" transform="translate(-5.24 -19.47)" style="fill:#263238"></path><path d="M244,52.05l-127.1,73.39c-3.47,2-6.08,6.77-5.82,10.61l21.14,310.1c.4,5.9,5.09,8.22,10.41,5.15l123.72-71.43c3.92-2.27,6.89-7.67,6.59-12l-21.27-312C251.34,51.5,247.89,49.79,244,52.05Z" transform="translate(-5.24 -19.47)" style="fill:#455a64"></path><path d="M246.16,70,266,361c.28,4.15-2.53,9.3-6.26,11.44L145.16,438.58c-3.74,2.17-7,.55-7.28-3.61l-20-293a13.44,13.44,0,0,1,4.26-9.92c.21-.2.41-.39.63-.57a11.11,11.11,0,0,1,1.37-.94l32.23-18.61,2.1-1.21c1.16-.67,2.17-.18,2.26,1.12s1.16,1.76,2.4,1l37.56-21.69a4.34,4.34,0,0,0,2.09-3.62,4.28,4.28,0,0,1,1.72-3.43l.22-.13,31.53-18.2.67-.39C241.66,62.7,245.8,64.75,246.16,70Z" transform="translate(-5.24 -19.47)"></path><path d="M261.18,358,241.34,67a8.11,8.11,0,0,0-.65-2.76,8.29,8.29,0,0,0-3.75,1.19l-.67.39L204.74,84l-.22.13a4.28,4.28,0,0,0-1.72,3.43,4.34,4.34,0,0,1-2.09,3.62l-37.56,21.69c-1.24.72-2.32.24-2.4-1s-1.1-1.79-2.26-1.12l-2.1,1.21-32.23,18.61a11.11,11.11,0,0,0-1.37.94q-.32.27-.63.57A13.44,13.44,0,0,0,117.9,142l20,293a6.63,6.63,0,0,0,.25,1.47,7.4,7.4,0,0,0,2.21-.86l114.59-66.16C258.65,367.28,261.46,362.13,261.18,358Z" transform="translate(-5.24 -19.47)" style="fill:#263238"></path><path d="M168.32,101.73l17.22-9.94c1-.59,1.92-.21,2,.86a3.61,3.61,0,0,1-1.73,3l-17.22,9.94c-1,.59-1.92.2-2-.87A3.59,3.59,0,0,1,168.32,101.73Z" transform="translate(-5.24 -19.47)" style="fill:#263238"></path><path d="M194.32,85.9c1.16-.67,2.17-.16,2.25,1.12a4.17,4.17,0,0,1-1.93,3.54c-1.16.67-2.17.17-2.26-1.12A4.16,4.16,0,0,1,194.32,85.9Z" transform="translate(-5.24 -19.47)" style="fill:#263238"></path><path d="M110.08,166.37a7.63,7.63,0,0,0-3.83-5.69,2.44,2.44,0,0,0-2.37-.14c-.42.25-2.06,1.17-2.49,1.43a2.31,2.31,0,0,0-.91,2.28l1.65,24.06A7.58,7.58,0,0,0,106,194a2.49,2.49,0,0,0,2.28.18c.46-.24,2.13-1.21,2.57-1.46a2.34,2.34,0,0,0,.91-2.29Z" transform="translate(-5.24 -19.47)" style="fill:#455a64"></path><path d="M107.61,167.79l1.64,24.06C109.4,194,107.93,195,106,194a7.58,7.58,0,0,1-3.83-5.69l-1.65-24.06c-.14-2.16,1.33-3.13,3.3-2.15A7.6,7.6,0,0,1,107.61,167.79Z" transform="translate(-5.24 -19.47)" style="fill:#37474f"></path><path d="M113,208.48a7.6,7.6,0,0,0-3.83-5.69,2.44,2.44,0,0,0-2.37-.13c-.42.25-2,1.16-2.49,1.42a2.3,2.3,0,0,0-.9,2.28L105,230.43a7.64,7.64,0,0,0,3.83,5.69,2.5,2.5,0,0,0,2.29.17c.45-.24,2.13-1.2,2.56-1.46a2.31,2.31,0,0,0,.91-2.29Z" transform="translate(-5.24 -19.47)" style="fill:#455a64"></path><path d="M110.48,209.9,112.13,234c.14,2.17-1.33,3.13-3.3,2.16a7.64,7.64,0,0,1-3.83-5.69l-1.64-24.07c-.15-2.16,1.32-3.13,3.29-2.15A7.59,7.59,0,0,1,110.48,209.9Z" transform="translate(-5.24 -19.47)" style="fill:#37474f"></path></g><path d="M139.48,142s0-.08,0-.17l-.06-.84-1.37.79c-.07,0-.12,0-.12-.11l0-.31a.43.43,0,0,1,0-.16.79.79,0,0,1,0-.17l1.24-3.85a1.13,1.13,0,0,1,.07-.15.18.18,0,0,1,.09-.08l.19-.11c.06,0,.1,0,.13,0s0,.09,0,.19l.2,2.94.3-.18c.06,0,.1,0,.13,0a.44.44,0,0,1,0,.19v.2a.47.47,0,0,1,0,.21.29.29,0,0,1-.12.13l-.3.17.06.84a.42.42,0,0,1,0,.21.27.27,0,0,1-.12.14l-.23.13C139.54,142,139.5,142,139.48,142Zm-.07-1.78-.14-2.09-.85,2.66Z" transform="translate(-5.24 -19.47)" style="fill:#fafafa"></path><path d="M141.06,140.53a2.73,2.73,0,0,1-.53-1.7,4.93,4.93,0,0,1,.27-2.17,2.51,2.51,0,0,1,1.09-1.34,1.51,1.51,0,0,1,.55-.21.66.66,0,0,1,.45,0,.08.08,0,0,1,0,.07.41.41,0,0,1,0,.1l-.1.44a.15.15,0,0,1,0,.1h-.06a.84.84,0,0,0-.71.13,1.66,1.66,0,0,0-.74.92,3.71,3.71,0,0,0-.19,1.6,2.13,2.13,0,0,0,.38,1.29.57.57,0,0,0,.77,0,1.51,1.51,0,0,0,.34-.24,2.26,2.26,0,0,0,.26-.29l-.1-1.37-.57.33c-.06,0-.1,0-.12,0a.32.32,0,0,1-.05-.18v-.2a.44.44,0,0,1,0-.21.33.33,0,0,1,.11-.13L143,137c.07,0,.11,0,.15,0a.34.34,0,0,1,.05.21l.14,1.95a.92.92,0,0,1,0,.18.38.38,0,0,1,0,.13,2.79,2.79,0,0,1-1.05,1.05A.91.91,0,0,1,141.06,140.53Z" transform="translate(-5.24 -19.47)" style="fill:#fafafa"></path><path d="M152.57,133.57a1.9,1.9,0,0,1-.72,1.64c-.43.25-.83-.07-.87-.72a1.92,1.92,0,0,1,.71-1.64C152.13,132.6,152.52,132.92,152.57,133.57Z" transform="translate(-5.24 -19.47)" style="fill:#fafafa"></path><path d="M151.56,130.93a4.31,4.31,0,0,0-1.73,2.71c-.06.24,0,.46.12.53h0c.17.09.38-.1.46-.41a3,3,0,0,1,1.21-1.91.93.93,0,0,1,1.38.41c.11.2.34.14.48-.12h0a.74.74,0,0,0,0-.63A1.32,1.32,0,0,0,151.56,130.93Z" transform="translate(-5.24 -19.47)" style="fill:#fafafa"></path><path d="M151.43,129.05a6.77,6.77,0,0,0-2.67,3.94.53.53,0,0,0,.1.59h0c.15.08.36-.1.44-.39A5.48,5.48,0,0,1,151.5,130a1.7,1.7,0,0,1,2.44.55c.11.18.33.12.46-.14h0a.71.71,0,0,0,0-.66A2.09,2.09,0,0,0,151.43,129.05Z" transform="translate(-5.24 -19.47)" style="fill:#fafafa"></path><path d="M175.45,117.54a.26.26,0,0,1,0-.14.55.55,0,0,1,.05-.17l1-2,.08-.14a.38.38,0,0,1,.09-.09l.41-.24a.11.11,0,0,1,.11,0,.22.22,0,0,1,.05.13l.34,5a.47.47,0,0,1,0,.17.25.25,0,0,1-.1.12l-.42.25a.09.09,0,0,1-.11,0s0-.06-.05-.12l-.26-3.84-.69,1.29a.14.14,0,0,1-.1.1.08.08,0,0,1-.1,0Z" transform="translate(-5.24 -19.47)" style="fill:#fafafa"></path><path d="M178.11,116a.2.2,0,0,1,0-.14.34.34,0,0,1,.05-.17l1-2,.09-.14a.22.22,0,0,1,.09-.1l.41-.23s.07,0,.1,0a.17.17,0,0,1,.05.12l.35,5a.51.51,0,0,1,0,.17.25.25,0,0,1-.1.12l-.43.24a.08.08,0,0,1-.1,0,.17.17,0,0,1-.05-.12l-.26-3.84-.69,1.29s-.06.09-.1.1a.08.08,0,0,1-.1,0Z" transform="translate(-5.24 -19.47)" style="fill:#fafafa"></path><path d="M181.58,113.78a.09.09,0,0,1,.1,0,.18.18,0,0,1,.06.13l0,.76a.51.51,0,0,1,0,.17.25.25,0,0,1-.1.12l-.49.28a.09.09,0,0,1-.1,0,.17.17,0,0,1,0-.13l-.06-.76a.38.38,0,0,1,0-.17.19.19,0,0,1,.09-.12Zm.19,2.72a.09.09,0,0,1,.1,0,.17.17,0,0,1,0,.13l.05.76a.25.25,0,0,1,0,.17.24.24,0,0,1-.09.12l-.49.28a.08.08,0,0,1-.11,0,.22.22,0,0,1-.05-.12l0-.77a.55.55,0,0,1,0-.17.25.25,0,0,1,.1-.12Z" transform="translate(-5.24 -19.47)" style="fill:#fafafa"></path><path d="M184.65,116.06a.08.08,0,0,1-.1,0,.23.23,0,0,1-.06-.12l-.06-1-1.63.94a.08.08,0,0,1-.1,0,.17.17,0,0,1,0-.12l0-.56a.5.5,0,0,1,0-.21c0-.06,0-.14.07-.22l1.4-3.9a.57.57,0,0,1,.2-.31l.4-.23a.08.08,0,0,1,.11,0,.15.15,0,0,1,.05.12l.21,3.11.45-.26a.09.09,0,0,1,.11,0,.14.14,0,0,1,.05.12l0,.55a.57.57,0,0,1,0,.18.27.27,0,0,1-.1.11l-.45.27.06.94a.27.27,0,0,1,0,.17.2.2,0,0,1-.1.12Zm-.29-2-.11-1.66-.78,2.18Z" transform="translate(-5.24 -19.47)" style="fill:#fafafa"></path><path d="M186.4,109.61a.55.55,0,0,1,0-.17.25.25,0,0,1,.1-.12l2-1.14a.09.09,0,0,1,.11,0,.14.14,0,0,1,0,.12l0,.55a.47.47,0,0,1,0,.17.25.25,0,0,1-.1.12l-1.47.85v1a1.3,1.3,0,0,1,.27-.26l.23-.15a1.48,1.48,0,0,1,.55-.2.78.78,0,0,1,.46.1.9.9,0,0,1,.33.4,2.09,2.09,0,0,1,.15.71,3,3,0,0,1,0,.91,2.76,2.76,0,0,1-.25.75,2.1,2.1,0,0,1-.42.59,2.24,2.24,0,0,1-.52.41,1.8,1.8,0,0,1-.63.24.76.76,0,0,1-.46-.09.81.81,0,0,1-.29-.34,1.65,1.65,0,0,1-.13-.53.33.33,0,0,1,0-.17.25.25,0,0,1,.1-.12l.43-.24a.09.09,0,0,1,.1,0,.14.14,0,0,1,.06.1.54.54,0,0,0,.12.24.32.32,0,0,0,.17.09.4.4,0,0,0,.21,0,1.58,1.58,0,0,0,.23-.11,1.14,1.14,0,0,0,.47-.52,1.63,1.63,0,0,0,.14-.77.58.58,0,0,0-.23-.47.46.46,0,0,0-.5,0,1.86,1.86,0,0,0-.24.18l-.15.17a.85.85,0,0,1-.1.14.32.32,0,0,1-.12.11l-.48.28a.08.08,0,0,1-.1,0,.14.14,0,0,1,0-.12Z" transform="translate(-5.24 -19.47)" style="fill:#fafafa"></path><polygon points="119.18 131.85 119.07 130.23 120.53 129.39 120.64 131.01 119.18 131.85" style="fill:#fafafa"></polygon><polygon points="121.37 130.59 121.15 127.35 122.61 126.51 122.83 129.75 121.37 130.59" style="fill:#fafafa"></polygon><polygon points="123.56 129.33 123.22 124.46 124.68 123.62 125.02 128.49 123.56 129.33" style="fill:#fafafa"></polygon><polygon points="125.75 128.06 125.3 121.58 126.76 120.74 127.2 127.22 125.75 128.06" style="fill:#fafafa"></polygon><path d="M236.52,81.1A.42.42,0,0,0,236,81l-5.45,3.13a1.89,1.89,0,0,0-.55,1.61l.21,2.94a1.59,1.59,0,0,0,.31.94.61.61,0,0,0,.24.19.39.39,0,0,0,.33,0l5.45-3.14A1.88,1.88,0,0,0,237,85L236.83,82A1.62,1.62,0,0,0,236.52,81.1Zm-5.92,8.09a.76.76,0,0,1-.12-.43l-.21-3a1.47,1.47,0,0,1,.42-1.22l5.45-3.14a.23.23,0,0,1,.18,0,.13.13,0,0,1,.07.06.71.71,0,0,1,.12.43l.21,2.94a1.47,1.47,0,0,1-.42,1.23l-5.45,3.13A.17.17,0,0,1,230.6,89.19Z" transform="translate(-5.24 -19.47)" style="fill:#fafafa"></path><path d="M231.76,84.5,232,88l-.86.49a.13.13,0,0,1-.18-.09l-.18-2.59a1.12,1.12,0,0,1,.31-.91Z" transform="translate(-5.24 -19.47)" style="fill:#fafafa"></path><polygon points="226.92 64.81 227.94 64.22 228.18 67.7 227.16 68.29 226.92 64.81" style="fill:#fafafa"></polygon><polygon points="228.34 63.99 229.36 63.4 229.6 66.9 228.58 67.48 228.34 63.99" style="fill:#fafafa"></polygon><path d="M236,82.29l.17,2.51a1.22,1.22,0,0,1-.63,1.14l-.35.2L235,82.65l.81-.47A.16.16,0,0,1,236,82.29Z" transform="translate(-5.24 -19.47)" style="fill:#fafafa"></path><path d="M237,81.94c.15-.09.31.33.35.93l0,.55c.05.61,0,1.18-.2,1.28l-.27.19-.18-2.79Z" transform="translate(-5.24 -19.47)" style="fill:#fafafa"></path><polygon points="216.49 71.71 221.68 67.07 220.44 73.74 219.45 71 216.49 71.71" style="fill:#fafafa"></polygon><path d="M162.38,203.48a1.87,1.87,0,0,1,0-.49,3.07,3.07,0,0,1,.11-.36l4.35-13.72a8.76,8.76,0,0,1-4.07,1.31,5.53,5.53,0,0,1-3.39-.92,7.24,7.24,0,0,1-2.43-3.08,14.71,14.71,0,0,1-1.17-5.16,22.36,22.36,0,0,1,.4-6.13,23.65,23.65,0,0,1,1.88-5.6,20.52,20.52,0,0,1,3.09-4.66,16.07,16.07,0,0,1,4-3.3,9.46,9.46,0,0,1,4.12-1.37,5.47,5.47,0,0,1,3.46.88A7.08,7.08,0,0,1,175.2,164a14.9,14.9,0,0,1,1.18,5.22,19.28,19.28,0,0,1,0,3.23,27.13,27.13,0,0,1-.47,3.06c-.21,1-.46,2-.73,2.91s-.54,1.86-.83,2.73l-6.2,19.48c-.09.29-.21.61-.35,1a1.76,1.76,0,0,1-.77.85l-3.46,2a.61.61,0,0,1-.77,0A1.26,1.26,0,0,1,162.38,203.48ZM161.05,178c.14,2.13.73,3.48,1.75,4.05s2.28.44,3.74-.41a9.07,9.07,0,0,0,3.51-3.8,10.6,10.6,0,0,0,1.09-5.67c-.14-2.1-.73-3.45-1.76-4.06s-2.27-.49-3.74.35a9,9,0,0,0-3.5,3.83A10.67,10.67,0,0,0,161.05,178Z" transform="translate(-5.24 -19.47)" style="fill:#fff"></path><path d="M178.79,167.5a1.45,1.45,0,0,1-.29-1,2.82,2.82,0,0,1,.33-1.26l7.7-14.59c.19-.35.38-.69.59-1a2,2,0,0,1,.69-.73l3-1.73a.61.61,0,0,1,.76,0,1.26,1.26,0,0,1,.38.91L194.47,185a2.75,2.75,0,0,1-.23,1.27,1.81,1.81,0,0,1-.7.87l-3.12,1.81a.61.61,0,0,1-.76,0,1.19,1.19,0,0,1-.39-.9l-1.92-28.2-5,9.5a1.44,1.44,0,0,1-.73.75.7.7,0,0,1-.75-.19Z" transform="translate(-5.24 -19.47)" style="fill:#fff"></path><path d="M196.36,157.35a1.45,1.45,0,0,1-.29-1,2.82,2.82,0,0,1,.33-1.26l7.7-14.58c.19-.35.38-.69.59-1a2,2,0,0,1,.69-.72l3-1.74a.63.63,0,0,1,.77,0,1.22,1.22,0,0,1,.38.9L212,174.81a2.68,2.68,0,0,1-.23,1.26,1.79,1.79,0,0,1-.7.88l-3.12,1.8a.61.61,0,0,1-.77,0,1.26,1.26,0,0,1-.38-.91l-1.92-28.19-5,9.49a1.47,1.47,0,0,1-.73.75.67.67,0,0,1-.75-.19Z" transform="translate(-5.24 -19.47)" style="fill:#fff"></path><path d="M148,241.75a.13.13,0,0,1,.16,0,.22.22,0,0,1,.07.18l0,.42a.45.45,0,0,1-.05.25.3.3,0,0,1-.14.18l-3.15,1.82a.13.13,0,0,1-.16,0,.23.23,0,0,1-.07-.18l-.51-7.47a.45.45,0,0,1,.05-.25.3.3,0,0,1,.14-.18l3.09-1.79a.12.12,0,0,1,.15,0,.25.25,0,0,1,.08.18l0,.42a.53.53,0,0,1,0,.25.34.34,0,0,1-.14.18l-2.56,1.48.17,2.44,2.38-1.38a.13.13,0,0,1,.16,0,.3.3,0,0,1,.08.18l0,.42a.55.55,0,0,1,0,.25.35.35,0,0,1-.15.18l-2.38,1.38.17,2.53Z" transform="translate(-5.24 -19.47)" style="fill:#fff"></path><path d="M149.54,236.36c0-.12.09-.24.14-.37a2.28,2.28,0,0,1,.2-.38,3,3,0,0,1,.27-.35,2.24,2.24,0,0,1,.38-.29,1.17,1.17,0,0,1,.81-.19.86.86,0,0,1,.54.46c.06-.18.12-.35.19-.52a2.32,2.32,0,0,1,.24-.47,1.91,1.91,0,0,1,.33-.42,2.2,2.2,0,0,1,.44-.33c.53-.3.93-.29,1.2,0a3.06,3.06,0,0,1,.49,1.7l.22,3.2a.75.75,0,0,1-.05.26.45.45,0,0,1-.14.18l-.29.16a.12.12,0,0,1-.16,0,.31.31,0,0,1-.08-.19l-.21-3.08a2,2,0,0,0-.32-1.18c-.17-.19-.41-.2-.72,0a1.55,1.55,0,0,0-.63.79,3.08,3.08,0,0,0-.17,1.39l.21,3.17a.55.55,0,0,1,0,.25.35.35,0,0,1-.15.18l-.29.17a.12.12,0,0,1-.15,0,.25.25,0,0,1-.08-.18l-.21-3.09a2.07,2.07,0,0,0-.32-1.17c-.18-.2-.42-.2-.72,0a1.56,1.56,0,0,0-.64.79,3.12,3.12,0,0,0-.16,1.39l.21,3.17a.48.48,0,0,1,0,.26.3.3,0,0,1-.14.17l-.29.17a.14.14,0,0,1-.15,0,.26.26,0,0,1-.08-.19l-.37-5.38a.75.75,0,0,1,0-.26A.39.39,0,0,1,149,236l.29-.17a.13.13,0,0,1,.16,0,.26.26,0,0,1,.07.19Z" transform="translate(-5.24 -19.47)" style="fill:#fff"></path><path d="M155.71,234.63a5.12,5.12,0,0,1,.1-1.1,5.5,5.5,0,0,1,.31-1,4,4,0,0,1,.51-.85,2.49,2.49,0,0,1,.69-.61,1.47,1.47,0,0,1,.77-.23.91.91,0,0,1,.6.26,1.65,1.65,0,0,1,.42.72,4.3,4.3,0,0,1,.21,1.14l0,.31a.61.61,0,0,1,0,.26.36.36,0,0,1-.15.17l-2.68,1.55v.07a1.39,1.39,0,0,0,.41,1,.67.67,0,0,0,.8,0,1.92,1.92,0,0,0,.63-.55,3.5,3.5,0,0,0,.32-.6,1.54,1.54,0,0,1,.1-.19.58.58,0,0,1,.14-.12l.23-.13a.15.15,0,0,1,.16,0,.18.18,0,0,1,.07.19,2,2,0,0,1-.1.53,2.77,2.77,0,0,1-.28.65,3.58,3.58,0,0,1-.49.65,3.07,3.07,0,0,1-.71.57,1.32,1.32,0,0,1-.72.2,1,1,0,0,1-.58-.24,1.75,1.75,0,0,1-.43-.62,3.47,3.47,0,0,1-.24-.95A6.09,6.09,0,0,1,155.71,234.63Zm.69-.37,2.2-1.26v0a1.22,1.22,0,0,0-.37-1,.71.71,0,0,0-.83,0,1.51,1.51,0,0,0-.42.35,2.6,2.6,0,0,0-.32.51,2.45,2.45,0,0,0-.2.63,3.12,3.12,0,0,0,0,.69Z" transform="translate(-5.24 -19.47)" style="fill:#fff"></path><path d="M162.13,228.39a.13.13,0,0,1,.16,0,.31.31,0,0,1,.08.19l0,.36a.47.47,0,0,1,0,.26.33.33,0,0,1-.14.18l-.45.26a1.8,1.8,0,0,0-.81,1.85l.23,3.37a.59.59,0,0,1,0,.26.45.45,0,0,1-.15.18l-.29.16a.12.12,0,0,1-.15,0,.26.26,0,0,1-.08-.19l-.36-5.38a.59.59,0,0,1,0-.26.45.45,0,0,1,.14-.18l.29-.16a.12.12,0,0,1,.16,0,.31.31,0,0,1,.08.19l0,.35a2.41,2.41,0,0,1,.34-.72,1.68,1.68,0,0,1,.56-.49Z" transform="translate(-5.24 -19.47)" style="fill:#fff"></path><path d="M162.91,230.67a6.3,6.3,0,0,1,.09-1.24,4.53,4.53,0,0,1,.32-1.08,3.83,3.83,0,0,1,.51-.86,2.44,2.44,0,0,1,.67-.58,1.09,1.09,0,0,1,.79-.2.9.9,0,0,1,.47.29l0-.36a.59.59,0,0,1,0-.26.36.36,0,0,1,.15-.17l.29-.17a.14.14,0,0,1,.15,0,.26.26,0,0,1,.08.19l.38,5.62a4.66,4.66,0,0,1-.33,2.17,3,3,0,0,1-1.33,1.51,2.09,2.09,0,0,1-.81.3,1.16,1.16,0,0,1-.58-.1,1,1,0,0,1-.36-.37,1.5,1.5,0,0,1-.15-.51.42.42,0,0,1,0-.26.35.35,0,0,1,.14-.17l.23-.14a.17.17,0,0,1,.15,0s.09.08.13.18l.09.15a.37.37,0,0,0,.18.14.6.6,0,0,0,.31,0,1.57,1.57,0,0,0,.47-.18,2.74,2.74,0,0,0,.48-.36,2,2,0,0,0,.59-1.08,3.09,3.09,0,0,0,0-.76l0-.72a3.57,3.57,0,0,1-.41.8,2.15,2.15,0,0,1-.75.68,1.26,1.26,0,0,1-.69.2.92.92,0,0,1-.59-.22,1.6,1.6,0,0,1-.43-.65,3.54,3.54,0,0,1-.24-1,3.5,3.5,0,0,1,0-.37C162.92,230.92,162.92,230.79,162.91,230.67Zm3-1.75a1.51,1.51,0,0,0-.42-1.08.69.69,0,0,0-.83,0,1.81,1.81,0,0,0-.77.95,3.61,3.61,0,0,0-.24,1.51c0,.22,0,.43,0,.65a1.8,1.8,0,0,0,.42,1.12.64.64,0,0,0,.84,0,1.85,1.85,0,0,0,.77-.91,3.19,3.19,0,0,0,.25-1.45c0-.12,0-.26,0-.42A3.79,3.79,0,0,0,165.89,228.92Z" transform="translate(-5.24 -19.47)" style="fill:#fff"></path><path d="M167.57,227.78a5.78,5.78,0,0,1,.11-1.1,5.5,5.5,0,0,1,.31-1,3.69,3.69,0,0,1,.51-.86,2.45,2.45,0,0,1,.69-.6A1.44,1.44,0,0,1,170,224a.87.87,0,0,1,.6.26,1.67,1.67,0,0,1,.42.71,4.46,4.46,0,0,1,.21,1.15l0,.31a.45.45,0,0,1-.05.25.3.3,0,0,1-.14.18l-2.68,1.55v.07a1.35,1.35,0,0,0,.41,1,.69.69,0,0,0,.8,0,2,2,0,0,0,.63-.55,3.5,3.5,0,0,0,.32-.6,1,1,0,0,1,.1-.19.43.43,0,0,1,.14-.12l.23-.13a.13.13,0,0,1,.16,0,.19.19,0,0,1,.07.19,2,2,0,0,1-.1.53,3.54,3.54,0,0,1-.28.65,4.1,4.1,0,0,1-.49.65,2.89,2.89,0,0,1-.72.56,1.33,1.33,0,0,1-.71.21,1,1,0,0,1-.58-.24,1.84,1.84,0,0,1-.43-.62,3.22,3.22,0,0,1-.24-.95A7.23,7.23,0,0,1,167.57,227.78Zm.7-.37,2.2-1.27v0a1.26,1.26,0,0,0-.37-1,.71.71,0,0,0-.83,0,1.75,1.75,0,0,0-.42.36,2.6,2.6,0,0,0-.32.51,2.5,2.5,0,0,0-.2.62,2.68,2.68,0,0,0,0,.69Z" transform="translate(-5.24 -19.47)" style="fill:#fff"></path><path d="M175.94,226.35a.56.56,0,0,1-.05.25.39.39,0,0,1-.14.18l-.29.17a.13.13,0,0,1-.16,0,.25.25,0,0,1-.07-.18l-.21-3a1.73,1.73,0,0,0-.38-1.17c-.21-.18-.49-.17-.83,0a1.86,1.86,0,0,0-.77.9,3.16,3.16,0,0,0-.21,1.5L173,228a.5.5,0,0,1,0,.26.3.3,0,0,1-.14.17l-.29.17a.12.12,0,0,1-.15,0,.24.24,0,0,1-.08-.18L172,223a.74.74,0,0,1,0-.25.39.39,0,0,1,.14-.18l.29-.17a.13.13,0,0,1,.16,0,.3.3,0,0,1,.08.18l0,.36a3.46,3.46,0,0,1,.4-.79,2.21,2.21,0,0,1,.76-.69,1.39,1.39,0,0,1,.69-.22.92.92,0,0,1,.57.2,1.55,1.55,0,0,1,.4.62,3.75,3.75,0,0,1,.2,1Z" transform="translate(-5.24 -19.47)" style="fill:#fff"></path><path d="M177.44,223.1a2.19,2.19,0,0,0,.19.71.91.91,0,0,0,.29.38.53.53,0,0,0,.36.11.74.74,0,0,0,.39-.12,1.72,1.72,0,0,0,.62-.58,2.48,2.48,0,0,0,.37-.93,1,1,0,0,1,.1-.31.34.34,0,0,1,.14-.15l.23-.13a.12.12,0,0,1,.16,0,.22.22,0,0,1,.07.19,2.52,2.52,0,0,1-.08.67,3.75,3.75,0,0,1-.29.81,4.67,4.67,0,0,1-.51.8,3,3,0,0,1-.74.63,1.52,1.52,0,0,1-.78.23.94.94,0,0,1-.6-.24,1.78,1.78,0,0,1-.42-.64,4,4,0,0,1-.21-1,4.41,4.41,0,0,1,0-.45,2.64,2.64,0,0,1,0-.47,5.43,5.43,0,0,1,.09-1.14,4.82,4.82,0,0,1,.29-1,3.72,3.72,0,0,1,.52-.89,2.55,2.55,0,0,1,.74-.65,1.49,1.49,0,0,1,.77-.23,1.09,1.09,0,0,1,.58.16,1,1,0,0,1,.37.42,1.48,1.48,0,0,1,.17.54.47.47,0,0,1,0,.25.39.39,0,0,1-.14.18l-.24.14a.17.17,0,0,1-.15,0,.55.55,0,0,1-.13-.19c-.12-.26-.27-.42-.46-.45a.91.91,0,0,0-.65.16,1.38,1.38,0,0,0-.38.32,2.12,2.12,0,0,0-.32.51,2.51,2.51,0,0,0-.22.67,3.35,3.35,0,0,0-.08.86A5,5,0,0,0,177.44,223.1Z" transform="translate(-5.24 -19.47)" style="fill:#fff"></path><path d="M182.62,224.81a1.31,1.31,0,0,1-.06.23.38.38,0,0,1-.15.18l-.32.18a.1.1,0,0,1-.13,0,.22.22,0,0,1-.07-.17v-.08l.58-2.85-1.89-4.19s0,0,0-.07a.59.59,0,0,1,0-.23.35.35,0,0,1,.13-.16l.32-.18c.06,0,.11,0,.15,0a.38.38,0,0,1,.09.13l1.47,3.24.95-4.63a1.19,1.19,0,0,1,.07-.23.37.37,0,0,1,.14-.18l.32-.18a.12.12,0,0,1,.14,0,.24.24,0,0,1,.07.16.25.25,0,0,1,0,.09Z" transform="translate(-5.24 -19.47)" style="fill:#fff"></path><path d="M187.62,214.71c0,.36,0,.68,0,1s.05.62.08,1a2,2,0,0,0,.5,1.32c.27.26.64.25,1.11,0a2.39,2.39,0,0,0,.62-.5,2.85,2.85,0,0,0,.4-.6,2.63,2.63,0,0,0,.22-.65,5.57,5.57,0,0,0,.1-.66.42.42,0,0,1,.07-.23.28.28,0,0,1,.12-.14l.35-.21a.12.12,0,0,1,.13,0,.18.18,0,0,1,.06.15,3.8,3.8,0,0,1-.07.91,4.53,4.53,0,0,1-.33,1.07,4.37,4.37,0,0,1-.63,1,3.15,3.15,0,0,1-1,.84,1.84,1.84,0,0,1-.92.29,1.18,1.18,0,0,1-.73-.26,1.77,1.77,0,0,1-.51-.73,4.42,4.42,0,0,1-.26-1.16c-.06-.67-.11-1.36-.14-2.06a6,6,0,0,1,.09-1.34,5.5,5.5,0,0,1,.37-1.25,4.6,4.6,0,0,1,.64-1.05,3.39,3.39,0,0,1,.89-.76,1.9,1.9,0,0,1,1-.31,1.22,1.22,0,0,1,.72.28,1.53,1.53,0,0,1,.44.63,2.3,2.3,0,0,1,.19.75.39.39,0,0,1,0,.21.3.3,0,0,1-.11.15l-.36.2a.12.12,0,0,1-.13,0,.21.21,0,0,1-.09-.14,2.7,2.7,0,0,0-.18-.5.84.84,0,0,0-.29-.35.72.72,0,0,0-.45-.11,1.39,1.39,0,0,0-.64.22,2.4,2.4,0,0,0-1,1.21A4.17,4.17,0,0,0,187.62,214.71Z" transform="translate(-5.24 -19.47)" style="fill:#fff"></path><path d="M192.15,215.74a2.84,2.84,0,0,1,.07-.88,3.58,3.58,0,0,1,.3-.79,3.75,3.75,0,0,1,.49-.69,5.57,5.57,0,0,1,.6-.59l1.08-.9v-.15c0-.39-.13-.64-.32-.73a.67.67,0,0,0-.67.08,1.32,1.32,0,0,0-.51.48,3.14,3.14,0,0,0-.27.62.5.5,0,0,1-.09.18.36.36,0,0,1-.15.12l-.23.14a.13.13,0,0,1-.16,0,.2.2,0,0,1-.07-.18,2,2,0,0,1,.1-.6,3.23,3.23,0,0,1,.29-.66,3.43,3.43,0,0,1,.46-.62,2.46,2.46,0,0,1,.56-.47,1.71,1.71,0,0,1,.66-.22.8.8,0,0,1,.55.14,1.26,1.26,0,0,1,.38.52,2.81,2.81,0,0,1,.19.92l.24,3.52a.48.48,0,0,1,0,.26.37.37,0,0,1-.14.18l-.29.16a.14.14,0,0,1-.15,0,.26.26,0,0,1-.08-.19l0-.47a2.11,2.11,0,0,1-.19.51,3.08,3.08,0,0,1-.32.48,3,3,0,0,1-.39.4,2.75,2.75,0,0,1-.38.29,1.42,1.42,0,0,1-.57.19.83.83,0,0,1-.45-.09.85.85,0,0,1-.31-.36A1.46,1.46,0,0,1,192.15,215.74Zm1.48-.19a1.85,1.85,0,0,0,.5-.43,2.53,2.53,0,0,0,.38-.58,2.78,2.78,0,0,0,.22-.69,2.66,2.66,0,0,0,0-.75v-.28l-.91.75a3.33,3.33,0,0,0-.75.82,1.27,1.27,0,0,0-.25.82.84.84,0,0,0,.06.24.55.55,0,0,0,.14.17.34.34,0,0,0,.23,0A.85.85,0,0,0,193.63,215.55Z" transform="translate(-5.24 -19.47)" style="fill:#fff"></path><path d="M197.49,213.9a.47.47,0,0,1-.05.26.38.38,0,0,1-.14.18l-.29.17a.13.13,0,0,1-.15,0,.26.26,0,0,1-.08-.19l-.52-7.58a.56.56,0,0,1,.05-.25.34.34,0,0,1,.14-.18l.29-.17a.13.13,0,0,1,.16,0,.25.25,0,0,1,.07.18Z" transform="translate(-5.24 -19.47)" style="fill:#fff"></path><path d="M199.37,212.82a.45.45,0,0,1-.05.25.3.3,0,0,1-.14.18l-.29.17a.12.12,0,0,1-.15,0,.25.25,0,0,1-.08-.18l-.52-7.58a.6.6,0,0,1,.05-.26.38.38,0,0,1,.14-.18l.29-.17a.13.13,0,0,1,.16,0,.26.26,0,0,1,.07.19Z" transform="translate(-5.24 -19.47)" style="fill:#fff"></path><path d="M202.44,208.28a.12.12,0,0,1-.15,0s-.07-.09-.08-.18l0-.37a.55.55,0,0,1,0-.25.35.35,0,0,1,.15-.18l4.48-2.59a.13.13,0,0,1,.16,0,.26.26,0,0,1,.07.19l0,.37a.45.45,0,0,1-.05.25.3.3,0,0,1-.14.18Z" transform="translate(-5.24 -19.47)" style="fill:#fff"></path><path d="M213.92,199.53c0,.34.06.66.08,1s0,.63.06,1a7.37,7.37,0,0,1-.05,1.33,5.18,5.18,0,0,1-.29,1.22,3.63,3.63,0,0,1-.57,1,2.78,2.78,0,0,1-.87.76,1.58,1.58,0,0,1-.9.27,1,1,0,0,1-.66-.32,2.08,2.08,0,0,1-.43-.8,5,5,0,0,1-.21-1.18c0-.35-.06-.67-.08-1s0-.64-.06-1a7.22,7.22,0,0,1,.05-1.32,5.07,5.07,0,0,1,.29-1.22,3.68,3.68,0,0,1,.57-1,2.66,2.66,0,0,1,.87-.76,1.58,1.58,0,0,1,.9-.27,1,1,0,0,1,.66.33,2,2,0,0,1,.43.8A4.89,4.89,0,0,1,213.92,199.53Zm-3.11,3.82a2.34,2.34,0,0,0,.44,1.43c.24.23.56.22,1,0a2.08,2.08,0,0,0,.89-1.06,4.23,4.23,0,0,0,.22-1.81c0-.35,0-.67-.06-1s0-.63-.07-1a2.36,2.36,0,0,0-.44-1.43q-.36-.35-1,0a2,2,0,0,0-.89,1.07,4.26,4.26,0,0,0-.22,1.81c0,.35,0,.68.06,1S210.78,203,210.81,203.35Z" transform="translate(-5.24 -19.47)" style="fill:#fff"></path><path d="M218.87,196.67c0,.34,0,.67.07,1s.05.63.06,1a6.53,6.53,0,0,1,0,1.33,5.07,5.07,0,0,1-.29,1.22,3.83,3.83,0,0,1-.57,1,3.14,3.14,0,0,1-.87.75,1.58,1.58,0,0,1-.9.27,1,1,0,0,1-.66-.32,2.08,2.08,0,0,1-.43-.8,5.4,5.4,0,0,1-.22-1.18c0-.34-.05-.67-.07-1s0-.63-.06-1a8.41,8.41,0,0,1,0-1.33,5.73,5.73,0,0,1,.3-1.22,3.83,3.83,0,0,1,.57-1,2.86,2.86,0,0,1,.86-.76,1.54,1.54,0,0,1,.91-.26,1,1,0,0,1,.66.32,2.23,2.23,0,0,1,.43.8A5.54,5.54,0,0,1,218.87,196.67Zm-3.11,3.83a2.32,2.32,0,0,0,.44,1.43c.23.22.55.22,1,0a2,2,0,0,0,.89-1,4.26,4.26,0,0,0,.22-1.81c0-.35,0-.68-.06-1s0-.63-.07-1a2.31,2.31,0,0,0-.45-1.43c-.23-.23-.55-.23-1,0a2,2,0,0,0-.88,1.06,4.43,4.43,0,0,0-.23,1.81q0,.53.06,1C215.7,199.83,215.73,200.15,215.76,200.5Z" transform="translate(-5.24 -19.47)" style="fill:#fff"></path><path d="M220.59,195.23a.12.12,0,0,1,.15,0,.22.22,0,0,1,.08.18l.05.78a.55.55,0,0,1,0,.25.39.39,0,0,1-.14.18l-.53.3a.11.11,0,0,1-.15,0,.26.26,0,0,1-.08-.19l-.05-.77a.48.48,0,0,1,.05-.26.37.37,0,0,1,.14-.18Zm.28,4.05a.12.12,0,0,1,.15,0s.07.09.08.18l.05.77a.47.47,0,0,1-.05.26.33.33,0,0,1-.14.18l-.52.3a.13.13,0,0,1-.16,0,.23.23,0,0,1-.07-.18l-.06-.78a.56.56,0,0,1,0-.25.39.39,0,0,1,.14-.18Z" transform="translate(-5.24 -19.47)" style="fill:#fff"></path><path d="M224.8,198.46a.12.12,0,0,1-.15,0,.19.19,0,0,1-.08-.18l-.11-1.59L222,198.09a.13.13,0,0,1-.16,0,.23.23,0,0,1-.07-.18l0-.42a1.56,1.56,0,0,1,0-.2,1.82,1.82,0,0,1,.07-.25l2.14-6.21a2.61,2.61,0,0,1,.12-.28.4.4,0,0,1,.17-.17l.31-.18a.12.12,0,0,1,.15,0,.26.26,0,0,1,.08.19l.33,4.83.67-.39a.12.12,0,0,1,.15,0,.21.21,0,0,1,.08.18l0,.42a.45.45,0,0,1-.05.25.3.3,0,0,1-.14.18l-.67.39.11,1.59a.48.48,0,0,1-.05.26.44.44,0,0,1-.14.18Zm-.41-2.82-.22-3.26-1.47,4.23Z" transform="translate(-5.24 -19.47)" style="fill:#fff"></path><path d="M227.39,194.78a.82.82,0,0,0,.5.61,1,1,0,0,0,.82-.15,1.87,1.87,0,0,0,.48-.38,2.58,2.58,0,0,0,.37-.54,2.72,2.72,0,0,0,.23-.68,2.93,2.93,0,0,0,0-.79,1.81,1.81,0,0,0-.14-.68.87.87,0,0,0-.3-.37.65.65,0,0,0-.42-.08,1.15,1.15,0,0,0-.49.17,1.81,1.81,0,0,0-.46.37,2.16,2.16,0,0,0-.28.38l-.19.32a.54.54,0,0,1-.2.22l-.4.23a.09.09,0,0,1-.12,0,.17.17,0,0,1-.06-.14l0-4a.48.48,0,0,1,0-.26.41.41,0,0,1,.14-.17l2.76-1.6a.12.12,0,0,1,.15,0,.26.26,0,0,1,.08.19l0,.41a.6.6,0,0,1-.05.26.3.3,0,0,1-.14.17l-2.27,1.32v2.07a3.57,3.57,0,0,1,.35-.39,2.63,2.63,0,0,1,.57-.42,1.8,1.8,0,0,1,.78-.26,1.1,1.1,0,0,1,.67.17,1.43,1.43,0,0,1,.48.61,3,3,0,0,1,.24,1,4.53,4.53,0,0,1-.08,1.23,4.32,4.32,0,0,1-.37,1.1,4.07,4.07,0,0,1-.59.91,3.09,3.09,0,0,1-.76.62,2,2,0,0,1-.76.27,1.16,1.16,0,0,1-.65-.09,1.18,1.18,0,0,1-.48-.46,1.8,1.8,0,0,1-.24-.8.51.51,0,0,1,0-.2.31.31,0,0,1,.12-.15l.36-.21a.13.13,0,0,1,.12,0A.22.22,0,0,1,227.39,194.78Z" transform="translate(-5.24 -19.47)" style="fill:#fff"></path><ellipse cx="190.76" cy="267.64" rx="19.08" ry="11.13" transform="matrix(0.25, -0.97, 0.97, 0.25, -121.78, 364.73)" style="fill:#455a64"></ellipse><path d="M186.39,274.69a3.69,3.69,0,0,0-1.41,3.24c.08,1.28.86,1.92,1.73,1.42a3.71,3.71,0,0,0,1.41-3.24C188,274.83,187.26,274.19,186.39,274.69Zm4.67-2.69a3.71,3.71,0,0,0-1.42,3.23c.09,1.29.87,1.93,1.73,1.42a3.71,3.71,0,0,0,1.42-3.23C192.7,272.13,191.92,271.5,191.06,272Zm4.66-2.7a3.71,3.71,0,0,0-1.41,3.24c.09,1.28.86,1.92,1.73,1.42a3.69,3.69,0,0,0,1.41-3.24C197.37,269.44,196.59,268.8,195.72,269.3ZM185.93,268a3.71,3.71,0,0,0-1.41,3.23c.09,1.29.86,1.93,1.73,1.43a3.7,3.7,0,0,0,1.41-3.24C187.58,268.14,186.8,267.51,185.93,268Zm4.67-2.7a3.7,3.7,0,0,0-1.41,3.24c.09,1.29.86,1.92,1.73,1.42a3.68,3.68,0,0,0,1.41-3.23C192.24,265.45,191.47,264.81,190.6,265.31Zm4.67-2.69a3.72,3.72,0,0,0-1.42,3.24c.09,1.28.87,1.92,1.74,1.42A3.73,3.73,0,0,0,197,264C196.91,262.75,196.14,262.12,195.27,262.62Zm-9.79-1.29a3.71,3.71,0,0,0-1.42,3.23c.09,1.29.87,1.92,1.74,1.42a3.71,3.71,0,0,0,1.41-3.23C187.12,261.46,186.35,260.82,185.48,261.33Zm4.66-2.7a3.71,3.71,0,0,0-1.41,3.24c.09,1.28.86,1.92,1.73,1.42a3.72,3.72,0,0,0,1.42-3.24C191.79,258.77,191,258.13,190.14,258.63Zm5,2a3.68,3.68,0,0,0,1.41-3.23c-.09-1.29-.86-1.92-1.73-1.42a3.68,3.68,0,0,0-1.41,3.23C193.49,260.46,194.26,261.09,195.13,260.59Z" transform="translate(-5.24 -19.47)" style="fill:#fff"></path><path d="M167.1,281.3c.65,9.61-4.07,20.43-10.56,24.17s-12.27-1-12.92-10.61,4.07-20.43,10.55-24.17S166.44,271.7,167.1,281.3Z" transform="translate(-5.24 -19.47)" style="fill:#455a64"></path><path d="M152.53,288.55l4.19,3.45a3.63,3.63,0,0,1-1,.91c-1.52.88-2.88-.23-3-2.49Z" transform="translate(-5.24 -19.47)" style="fill:#fff"></path><path d="M157.7,280.39l.46,6.85a7.37,7.37,0,0,1,0,.94l-6-4.92c0-2.17,1-4.52,2.49-5.36a1.7,1.7,0,0,1,2,.07A3.38,3.38,0,0,1,157.7,280.39Z" transform="translate(-5.24 -19.47)" style="fill:#fff"></path><path d="M159.47,286.2a1,1,0,0,0-.38.87,8.56,8.56,0,0,1-.07,1.82l.72.58a11.26,11.26,0,0,0,.2-2.89C159.91,286.23,159.71,286.07,159.47,286.2ZM157.77,297l-1.31.75-.15-2.21a7.7,7.7,0,0,0,2-2.28l-.67-.56a5.43,5.43,0,0,1-1.83,1.86c-2,1.17-3.82-.31-4-3.3,0-.35-.23-.52-.46-.38a1,1,0,0,0-.38.86c.23,3.47,2.23,5.29,4.54,4.28l.15,2.22-1.32.76a1,1,0,0,0-.38.87c0,.34.23.51.47.38l3.47-2a1,1,0,0,0,.37-.86C158.21,297.07,158,296.9,157.77,297Z" transform="translate(-5.24 -19.47)" style="fill:#fff"></path><path d="M161.36,292.47l-11.42-9.37c-.18-.15-.45,0-.6.34a.83.83,0,0,0,.06.88l11.42,9.38a.27.27,0,0,0,.31,0,.78.78,0,0,0,.29-.36A.83.83,0,0,0,161.36,292.47Z" transform="translate(-5.24 -19.47)" style="fill:#fff"></path><path d="M237.9,240.43c.65,9.6-4.07,20.42-10.56,24.17s-12.27-1-12.92-10.62,4.07-20.42,10.55-24.16S237.24,230.82,237.9,240.43Z" transform="translate(-5.24 -19.47)" style="fill:#455a64"></path><path d="M224,240.36l-3.45,6a1.15,1.15,0,0,1-.39.4l-1.48.85a1.82,1.82,0,0,0-.69,1.57l.37,5.3c0,.63.41.94.84.69l1.48-.85a.52.52,0,0,1,.41-.07l4,1.74c.54.17,1.16-.75,1.1-1.63l-.94-13.73C225.14,239.76,224.45,239.6,224,240.36Zm4,1.74c-.23-.18-.56,0-.74.44a1,1,0,0,0,.08,1.09,3.29,3.29,0,0,1,1,2.35,6.93,6.93,0,0,1-.58,3.23,1,1,0,0,0,.07,1.1.34.34,0,0,0,.39,0,1,1,0,0,0,.35-.45,9.82,9.82,0,0,0,.83-4.51A4.51,4.51,0,0,0,228,242.1Zm1.72-4c-.23-.18-.56,0-.75.43a1,1,0,0,0,.08,1.1,6.59,6.59,0,0,1,2,4.74,14.35,14.35,0,0,1-1.19,6.54,1,1,0,0,0,.08,1.1.31.31,0,0,0,.38,0,.91.91,0,0,0,.36-.44,17,17,0,0,0,1.42-7.82C231.92,241.24,231.08,239.23,229.73,238.14Zm1.71-3.95c-.23-.18-.56,0-.75.43a1.05,1.05,0,0,0,.08,1.11c1.7,1.37,2.76,3.9,3,7.12a21.6,21.6,0,0,1-1.79,9.83,1,1,0,0,0,.07,1.1.33.33,0,0,0,.39,0,1,1,0,0,0,.36-.44,24.18,24.18,0,0,0,2-11.11C234.55,238.6,233.36,235.74,231.44,234.19Z" transform="translate(-5.24 -19.47)" style="fill:#fff"></path><ellipse cx="195.57" cy="338.24" rx="27.96" ry="16.31" transform="translate(-186.47 422.07) rotate(-75.29)" style="fill:#0070F3"></ellipse><g id="freepik--Phone--inject-90"><path d="M185.31,351c.87.42,2.15-.74,3-1.51l.39-.36a7.85,7.85,0,0,0,2.81-4.12,7.13,7.13,0,0,0-.16-2.88c-.07-.38-.14-.75-.17-1.08a.85.85,0,0,1,.18-.75c2.47-2.82,5-4.32,7.8-4.59.25,0,.43.07.49.74l0,.27a6.56,6.56,0,0,0,.59,2.82,2.51,2.51,0,0,0,2.09,1l.36,0a3.42,3.42,0,0,0,3-.74,6.69,6.69,0,0,0,1.81-4.4,7.06,7.06,0,0,0-1.74-5.43,3.49,3.49,0,0,0-1.05-.73,5.91,5.91,0,0,0-2.92-.34,15.2,15.2,0,0,0-2.28.36,18.94,18.94,0,0,0-7.65,4.08,27,27,0,0,0-3.17,3.16l-.49.59-.27.34a16.42,16.42,0,0,0-3.06,5.07,11.76,11.76,0,0,0-.52,7.19A2.1,2.1,0,0,0,185.31,351Z" transform="translate(-5.24 -19.47)" style="fill:#fafafa"></path></g><g style="opacity:0.15"><path d="M254,252,137,421.61l.92,13.36a6.63,6.63,0,0,0,.25,1.47,7.4,7.4,0,0,0,2.21-.86L205,398.27l53.67-77.83Z" transform="translate(-5.24 -19.47)" style="fill:#fff"></path><polygon points="245.05 178.72 242.49 141.08 125.5 310.74 128.06 348.38 245.05 178.72" style="fill:#fff"></polygon><path d="M127.43,281.78l117-169.66L241.34,67a8.11,8.11,0,0,0-.65-2.76,8.29,8.29,0,0,0-3.75,1.19l-.67.39-17.1,9.87L122.9,215.29Z" transform="translate(-5.24 -19.47)" style="fill:#fff"></path></g></g></g><g id="freepik--Character--inject-90"><g id="freepik--character--inject-90"><g id="freepik--Bottom--inject-90"><path d="M378.69,379.75l1.86-16.49L358.69,360s.61,8.22.79,15.46c.15,6.27-.62,8.65-2.84,12.14s-7.69,7.91-13.71,10.17-11.76,5.33-10.21,8.78,10.45,5.2,14.35,4.46,12.63-5.14,17.1-8.3,11.75-4.54,13.44-5.22,2.15-3.05,2.17-7A86.2,86.2,0,0,0,378.69,379.75Z" transform="translate(-5.24 -19.47)" style="fill:#b16668"></path><path d="M352.66,217.28c-1,11.2,1.07,43.35,1.4,66.86.16,11.09.7,31.36,1,36.3.84,13.93,3.3,45.8,3.3,45.8s11.57,4.87,22.12,1c2.11-17.41,8.76-42.08,4.42-57l10.29-87Z" transform="translate(-5.24 -19.47)" style="fill:#455a64"></path><path d="M376.47,309.47c-.4-4.45,2.55-50.37,2.57-50.79l-.94,0c-.08,1.71-3,46.41-2.57,50.92a39.06,39.06,0,0,0,.72,4.2,77.91,77.91,0,0,1,1.6,21.74c-.49,9.3-1.36,23.48-1.94,32.88l1-.17c.58-9.4,1.43-23.43,1.92-32.66a78.61,78.61,0,0,0-1.62-22A40.58,40.58,0,0,1,376.47,309.47Z" transform="translate(-5.24 -19.47)" style="fill:#37474f"></path><path d="M384.9,310.19l6.34-51.32c-15.1-2.38-25.53-10.16-28.18-16.47a22.23,22.23,0,0,0,13.06,16.88s2.94,28.9,4.42,39.05,2.43,19.73,5,36.25C386.58,325.51,386.84,316.87,384.9,310.19Z" transform="translate(-5.24 -19.47)" style="fill:#37474f"></path><path d="M329,407.44c-.31,0-.8,3.41.9,4.86,2,1.68,7.77,4.45,15.44,3.51s11.84-3.24,14.92-5.74,7.4-6,10.87-6.78c3.23-.68,8.48-2.43,9.52-3.41s.9-5.31.9-5.31Z" transform="translate(-5.24 -19.47)" style="fill:#263238"></path><path d="M378.74,379.32a2.42,2.42,0,0,1,1.25,1.5c.23,1.2.23,2.73.73,4.7.7,2.73,1.15,8.32.71,10.54s-7.43,4.09-10.8,5.33a42.64,42.64,0,0,0-10.9,6.68c-3.62,2.9-11.21,5.79-16.21,5.84-7.64.07-12.57-2-14.09-4.67-1.31-2.34-.09-5.71,1.88-7.35,2.73-2.28,6.08-3.69,9.31-5.23,5-2.39,10.62-5.36,13.82-10a11.9,11.9,0,0,0,2.12-6.69,2.31,2.31,0,0,1,.15-1.11,2.23,2.23,0,0,1,1.76-.9c3.74-.52,7,1.12,10.5,2.44a4.09,4.09,0,0,1,2.12,1.42c.92,1.48-.29,3.41,0,5.12a.92.92,0,0,0,.11.33c.24.35.8.28,1.17.07,1.36-.76,1.77-2.44,2.58-3.76a6.6,6.6,0,0,1,2.67-2.43,7.46,7.46,0,0,1,.94-.36Z" transform="translate(-5.24 -19.47)" style="fill:#37474f"></path><path d="M336.76,398.5c11.05.79,14.16,9.69,14.61,13.83a26.73,26.73,0,0,1-7.85,1.58c-7.64.07-12.88-2-14.4-4.67C327.35,406.09,328.92,401.38,336.76,398.5Z" transform="translate(-5.24 -19.47)" style="fill:#fafafa"></path><path d="M352,400.12a.54.54,0,0,0,.34-.12.52.52,0,0,0,.08-.74c-1.53-1.85-5.74-5.07-9.76-4.66a.53.53,0,0,0-.48.58.54.54,0,0,0,.59.48c3.75-.38,7.6,2.8,8.81,4.27A.55.55,0,0,0,352,400.12Z" transform="translate(-5.24 -19.47)" style="fill:#f0f0f0"></path><path d="M356.74,397.43a.54.54,0,0,0,.34-.12.54.54,0,0,0,.08-.75c-1.53-1.85-5.74-5.07-9.76-4.65a.53.53,0,1,0,.11,1c3.75-.38,7.6,2.8,8.81,4.27A.53.53,0,0,0,356.74,397.43Z" transform="translate(-5.24 -19.47)" style="fill:#f0f0f0"></path><path d="M361.16,394.34a.54.54,0,0,0,.34-.12.52.52,0,0,0,.08-.74c-1.53-1.85-5.76-5.07-9.76-4.66a.54.54,0,0,0-.48.58.55.55,0,0,0,.59.48c3.75-.38,7.6,2.8,8.81,4.27A.57.57,0,0,0,361.16,394.34Z" transform="translate(-5.24 -19.47)" style="fill:#f0f0f0"></path><path d="M365.26,390.63a.54.54,0,0,0,.33-.12.51.51,0,0,0,.09-.74c-2.1-2.63-6.66-5.13-10.67-4.71a.54.54,0,0,0-.49.58.55.55,0,0,0,.6.47c3.61-.37,7.85,2,9.71,4.31A.58.58,0,0,0,365.26,390.63Z" transform="translate(-5.24 -19.47)" style="fill:#f0f0f0"></path><path d="M358,361.63c4.18,3.08,16.2,6.08,23.24,1.4l-1.37,8.74c-4.24,2.68-16.61,3.56-21.38-2.07Z" transform="translate(-5.24 -19.47)" style="fill:#37474f"></path><path d="M422.56,389.06l.43-19.38-21.72.81,3.2,19.6s1.26,8,1.53,9.88a157.22,157.22,0,0,1,1.15,16.58c.09,7.31.46,14.09,2.46,17.45s4.19,3.89,7.47,2.79,7.27-4.78,8.53-10.58-.49-14.39-1.21-16.35S422.67,396.22,422.56,389.06Z" transform="translate(-5.24 -19.47)" style="fill:#b16668"></path><path d="M419.63,222.21,376.68,222c1.4,10.8,11.36,84.13,13.58,96.52s12,61,12,61,2.31,3.63,9.63,3.19c8.21-.5,11.39-3.83,11.39-3.83s1.59-26.1,1.75-41.45a99.33,99.33,0,0,0-3.66-28.64s1.08-27.94,1.06-46.62S422.28,237.47,419.63,222.21Z" transform="translate(-5.24 -19.47)" style="fill:#455a64"></path><path d="M405.4,425.66c.22,5.13,1,8.53,2.75,11.57s5.21,4,8.71,3.21,8-3.1,9.07-7.5,1.69-7.42,1-12.18Z" transform="translate(-5.24 -19.47)" style="fill:#263238"></path><path d="M422.56,389.06c1.43.14.95,6.92,1.67,13.82.78,7.39,1.81,10.34,2.51,16.4.81,6.93-.39,10-2.88,14.14s-11.17,8.1-15.33,2c-3.38-4.94-3.45-10.35-3-17.25a99.2,99.2,0,0,0-.7-17.34c-.52-5.58-1.59-10.22-.33-10.78,0,0,.83,4.26,1.15,5.14.15.39.69,1.36.93-.08.07-.43-.05-1.42,0-1.84.12-1.2.85-1.38,1.33-1.64a13.73,13.73,0,0,1,6.14-1.23c2.8,0,5.23,0,6.79.8.93.49.89,1.39,1,2.26.11,1,.12,1.69.37,1.48C422.68,394.57,422.39,389.8,422.56,389.06Z" transform="translate(-5.24 -19.47)" style="fill:#37474f"></path><path d="M427.08,423.29a17.2,17.2,0,0,1-2.84,10.46c-2.5,4.14-11.86,8.1-16,2.05-2.07-3-2.58-6.55-2.82-10.14C408,421.08,423.13,419.3,427.08,423.29Z" transform="translate(-5.24 -19.47)" style="fill:#fafafa"></path><path d="M408.65,418.19a.41.41,0,0,0,.18-.05c.05,0,6.74-2.65,13.19-1.05a.55.55,0,0,0,.65-.39.54.54,0,0,0-.39-.64c-6.82-1.69-13.64,1-13.9,1.12a.53.53,0,0,0-.26.7A.53.53,0,0,0,408.65,418.19Z" transform="translate(-5.24 -19.47)" style="fill:#f0f0f0"></path><path d="M421.78,411.93a.53.53,0,0,0,.13-1c-6.41-2.28-13.61.87-13.88,1a.53.53,0,0,0-.23.71.54.54,0,0,0,.71.24c.07,0,7.08-3.08,13-1A.46.46,0,0,0,421.78,411.93Z" transform="translate(-5.24 -19.47)" style="fill:#f0f0f0"></path><path d="M421.62,407.07a.54.54,0,0,0,.45-.34.52.52,0,0,0-.31-.69c-7-2.64-13.88.81-14.14,1a.52.52,0,0,0-.18.72.52.52,0,0,0,.72.19c.06,0,6.67-3.33,13.23-.88A.62.62,0,0,0,421.62,407.07Z" transform="translate(-5.24 -19.47)" style="fill:#f0f0f0"></path><path d="M421.34,402.28a.54.54,0,0,0,.45-.34.52.52,0,0,0-.3-.68c-6.6-2.59-14,.94-14.24,1.1a.53.53,0,0,0,.52.93c.07,0,7.2-3.45,13.33-1.05A.67.67,0,0,0,421.34,402.28Z" transform="translate(-5.24 -19.47)" style="fill:#ebebeb"></path><path d="M400.93,373.67c4.44,2.54,16.52,4.05,22.82-1.46l-.29,8.85c-3.81,3.17-15.76,5.56-21.09.55Z" transform="translate(-5.24 -19.47)" style="fill:#37474f"></path><path d="M420.7,321c-.29-2.39-.57-4.29-.85-6.12-.9-6.13-1.76-11.91-2.92-35-.43-8.7-.47-15.41-.5-21.34-.07-12-.11-20.71-3.25-36.36h-1c3,14.73,3.18,23.29,3.25,34.22-5.73-.24-9-5.75-10.27-17.3-1.34-12.22-2.7-20.58-2.71-20.66l-.93.15c0,.08,1.36,8.42,2.7,20.62,1.31,12,5,17.9,11.22,18.13,0,.4,0,.8,0,1.21,0,5.93.07,12.65.5,21.38,1.16,23.17,2,29,2.93,35.12.27,1.83.55,3.72.84,6.1a348.76,348.76,0,0,1,1.88,54.93l.94,0A348.3,348.3,0,0,0,420.7,321Z" transform="translate(-5.24 -19.47)" style="fill:#37474f"></path></g><g id="freepik--Top--inject-90"><path d="M351.1,124.8c-1.1-.62-1.79-7.89-.78-13.12s-1.43-6.42-2.57-4.76a8.56,8.56,0,0,0-1.38,3.07,14.42,14.42,0,0,0-6.67,3.79c-2.82,3-6.15,6.59-4.93,14.26.23,1.49.47,7.42-.31,9.72-3.86,11.41-18.15,23.93-21,39.09-2.67,14,8.19,15,17.52,10.53,10.73-5.18,31-24.25,31-24.25l8.17-30.52c-5.74.1-10,1.21-17.38,8.77-1.23,1.27-6.4,5.94-6.4,5.94,1.87-4.46,2.88-7.32,5.11-10.77" transform="translate(-5.24 -19.47)" style="fill:#b16668"></path><path d="M340.21,167.65a64.75,64.75,0,0,1-5.27,10.16,19.68,19.68,0,0,0,6.86-8.49Z" transform="translate(-5.24 -19.47)" style="fill:#9a4a4d"></path><path d="M371.34,132.56c-6.22-.41-11.24.7-16,5.56-4.37,4.48-9,9.2-9,9.2-2.79,8.64-4,13.62-6.11,20.34,1.19,3.75,2.33,7.79,5.07,10.46l24.63-21Z" transform="translate(-5.24 -19.47)" style="fill:#455a64"></path><path d="M348.05,133.23c1.67-2.8-1-5.41-1-5.41l4-2.88v-.14s0,0,0,0l-16.56-.29a18.85,18.85,0,0,0,.25,3.55,25.55,25.55,0,0,1,.23,3.58l2.18,1.23a1.61,1.61,0,0,0,1.55,0l6.88-3.8C348.06,129.94,348.05,133.23,348.05,133.23Z" transform="translate(-5.24 -19.47)" style="fill:#9a4a4d"></path><g id="freepik--mobile--inject-90"><path d="M334,110.53,362.71,96a1.62,1.62,0,0,1,1.62,0c.38.23,1.89,1.11,2.31,1.33a1.56,1.56,0,0,1,.77,1.31l1.36,15a3.66,3.66,0,0,1-1.89,3.34L338.2,131.46a1.68,1.68,0,0,1-1.53.09c-.43-.22-2.07-1.16-2.5-1.44a1.56,1.56,0,0,1-.67-1.25c-.35-3.76-1-11.23-1.37-15A3.69,3.69,0,0,1,334,110.53Z" transform="translate(-5.24 -19.47)" style="fill:#37474f"></path><path d="M336.75,131.59l-.08,0c-.43-.22-2.07-1.17-2.5-1.44a1.59,1.59,0,0,1-.67-1.26c-.35-3.76-1-11.23-1.37-15a3.6,3.6,0,0,1,.93-2.56l2.4,1.36a3.6,3.6,0,0,0-.94,2.58c.35,3.76,1,11.23,1.37,15A1.52,1.52,0,0,0,336.75,131.59Z" transform="translate(-5.24 -19.47)" style="fill:#263238"></path><path d="M366.61,97.29a1.73,1.73,0,0,0-1.51.1l-28.68,14.52a3.29,3.29,0,0,0-1,.76l-2.4-1.37a3.27,3.27,0,0,1,1-.77L362.7,96a1.68,1.68,0,0,1,1.63,0C364.69,96.19,366.09,97,366.61,97.29Z" transform="translate(-5.24 -19.47)" style="fill:#455a64"></path><path d="M365.5,114.68a2.05,2.05,0,0,1-.95,1.66l-27.08,13.75.06.67L336,114.81a2,2,0,0,1,.94-1.66l27.7-14.09h0l-.61.31Z" transform="translate(-5.24 -19.47)" style="fill:#0070F3"></path><path d="M365.5,114.68a2.05,2.05,0,0,1-.95,1.66l-27.08,13.75.06.67L336,114.81a2,2,0,0,1,.94-1.66l27.7-14.09h0l-.61.31Z" transform="translate(-5.24 -19.47)" style="fill:#fff;opacity:0.75"></path><path d="M366.18,115a2,2,0,0,1-.94,1.66l-27.71,14.08-.07-.66,27.09-13.76a2.05,2.05,0,0,0,.95-1.66L364,99.37l.61-.31Z" transform="translate(-5.24 -19.47)" style="fill:#263238"></path><path d="M366.69,106a1.15,1.15,0,0,0-.53,1,.43.43,0,0,0,.67.36,1.11,1.11,0,0,0,.53-1A.42.42,0,0,0,366.69,106Z" transform="translate(-5.24 -19.47)" style="opacity:0.35000000000000003"></path></g><path d="M351.55,124.71c.85-.74,1.1-3,2.52-5.06,1.65-2.39,5.61-1.89,4.43,0s-1.55,3.65-2.31,8.5-2.68,5.67-4.76,8.37l-.33-11.61Z" transform="translate(-5.24 -19.47)" style="fill:#b16668"></path><g id="freepik--Chest--inject-90"><path d="M352.17,163.34c.78-13.9,7.08-22.29,11.36-25.83s12.49-10.8,29-3.65c9.89,4.28,23.36,11.6,23.36,11.6s5.42,15.9,5.79,27.29-3.16,19.38-2.82,28.42,1.08,18.18,2.84,31.46c-10.94,14.79-58,14.07-69.83-8.41C352,206.33,351.43,176.35,352.17,163.34Z" transform="translate(-5.24 -19.47)" style="fill:#0070F3"></path></g><g id="freepik--chest--inject-90" style="opacity:0.35000000000000003"><path d="M352.17,163.34c.78-13.9,7.08-22.29,11.36-25.83s12.49-10.8,29-3.65c9.89,4.28,23.36,11.6,23.36,11.6s5.42,15.9,5.79,27.29-3.16,19.38-2.82,28.42,1.08,18.18,2.84,31.46c-10.94,14.79-58,14.07-69.83-8.41C352,206.33,351.43,176.35,352.17,163.34Z" transform="translate(-5.24 -19.47)" style="fill:#fff"></path></g><g id="freepik--top--inject-90"><g id="freepik--Head--inject-90"><path d="M398.71,130c.81-5.34,6-11,8.31-15.67,2.22-4.52,3.53-8,3.19-12.22-.2-2.49-1.83-5.84-3.69-6.52,2-9.3-5.06-13.47-8.76-14.29A39.57,39.57,0,0,1,392.62,80c-2-.8-2.5-2.41-4.14-3.75-2.83-2.32-7.53-2.29-9.25,1.32-1.9-2.36-4.41-2.26-7.3-1.46a5,5,0,0,0-3.71,5.67c-3.92-2.1-7.43.7-7.75,3-.23,1.69.15,3.11-.93,4.64-1.21,1.72-3.56,1.73-4.29.37-.36,2.4.61,4.21,3.2,4a5.48,5.48,0,0,0-.6,4.58,5,5,0,0,0,4.55,3.35,8.61,8.61,0,0,0,1.22,3.62,8.71,8.71,0,0,0,3.11,2.71c4,1.8,8.32,2.33,12.57,3.13l5,.95c.3.06,1.82.12,2,.38Z" transform="translate(-5.24 -19.47)" style="fill:#263238"></path><path d="M405.2,123c-3.7,2.3-6.28-.07-6.28-.07l.21,18.75c-4.27,6.58-14,7.45-19.14,6.25-6.61-1.55-5.21-6.61-2.2-9.31l-.18-3.07a42.2,42.2,0,0,1-5.59-.18c-4.19-.5-8.32-4.83-9.41-8.31-1.46-4.67-1.76-12.23-.84-17.91a15.39,15.39,0,0,0,.15-4.39c-.47-3.88.19-6.15,1.13-9.43,4.53-3.78,16.56-4.87,26.57,1-1,5.92-.08,10.18,4.24,12.35-.17,1.6-.29,5.62,2.32,5.5,1.89-.09,2-2.45,3.87-4.57s6.4-2.76,8.21.28C410.78,114.13,409.26,120.49,405.2,123Z" transform="translate(-5.24 -19.47)" style="fill:#b16668"></path><path d="M379.51,100.08a1,1,0,0,0-.61.37,1.92,1.92,0,0,0-.32.58,3,3,0,0,0-.11.73,2.73,2.73,0,0,0,.06.49.74.74,0,0,0,.14.43.15.15,0,0,0,.11,0c.21-.06.15-.34.17-.49s0-.25,0-.37a2.42,2.42,0,0,1,.09-.6,1.46,1.46,0,0,1,.6-.74C379.81,100.42,379.72,100.05,379.51,100.08Z" transform="translate(-5.24 -19.47)" style="fill:#9a4a4d"></path><path d="M371.2,99.2a1.81,1.81,0,0,0-.7-.53c-.17,0-.13.17-.06.25l.07.06a.79.79,0,0,1,.15.12,1.59,1.59,0,0,1,.2.24,1.7,1.7,0,0,1,.28.61,1.72,1.72,0,0,1,0,.64,2.27,2.27,0,0,1-.06.3,1.92,1.92,0,0,0-.09.32c0,.12.15.32.28.22a1.16,1.16,0,0,0,.36-.72,1.94,1.94,0,0,0-.07-.83A1.85,1.85,0,0,0,371.2,99.2Z" transform="translate(-5.24 -19.47)" style="fill:#9a4a4d"></path><path d="M377.61,135.56c6.6-.9,11.62-1.71,15-6.57a28.86,28.86,0,0,0,3.32-7.65s-.05,5.61-2.14,9.62c-1.61,3.09-5.72,5.72-16.09,6.8Z" transform="translate(-5.24 -19.47)" style="fill:#9a4a4d"></path><path d="M379.88,108.6a2,2,0,1,0,1.89-2.11A2,2,0,0,0,379.88,108.6Z" transform="translate(-5.24 -19.47)" style="fill:#263238"></path><path d="M365.56,101.55l4-2.11a2.39,2.39,0,0,1-1,3.15A2.22,2.22,0,0,1,365.56,101.55Z" transform="translate(-5.24 -19.47)" style="fill:#263238"></path><path d="M380.33,101.47l3.8,2.57a2.2,2.2,0,0,1-3.12.68A2.41,2.41,0,0,1,380.33,101.47Z" transform="translate(-5.24 -19.47)" style="fill:#263238"></path><path d="M365.24,107.54a2,2,0,1,0,1.89-2.1A2,2,0,0,0,365.24,107.54Z" transform="translate(-5.24 -19.47)" style="fill:#263238"></path><path d="M367.2,116.12l6.54,2.75,1.75-12.75C373.06,105.31,370.08,111.21,367.2,116.12Z" transform="translate(-5.24 -19.47)" style="fill:#9a4a4d"></path><path d="M377,120.54c-1.43,0-3.57,1.54-3.21,3.54.11.62.92.68,1.67.3a14.35,14.35,0,0,1,3.51-.92c1.23-.19,1.07-1.43.17-2.22A3.46,3.46,0,0,0,377,120.54Z" transform="translate(-5.24 -19.47)" style="fill:#9a4a4d"></path><path d="M378.67,120.92a4,4,0,0,0-3.43,3.57,1.12,1.12,0,0,0,.25-.11,14.35,14.35,0,0,1,3.51-.92c1.23-.19,1.07-1.43.17-2.22A2.37,2.37,0,0,0,378.67,120.92Z" transform="translate(-5.24 -19.47)" style="fill:#f28f8f"></path></g></g><path d="M410.62,142.77c6,2.19,9.72,5.52,19.28,16.73s20.63,24.67,20.63,24.67-1,8.17-6.52,9.57c-2.87.73-6.73.59-16.65-5.72-8.15-5.18-12.7-8.16-12.7-8.16S402.34,159.5,410.62,142.77Z" transform="translate(-5.24 -19.47)" style="fill:#455a64"></path><path d="M423.7,134.47c-.11-1.5,2.11-5.22,2.5-7.5s-.43-6.68.43-9.45.27-3.75-.6-3.46a7.52,7.52,0,0,0-3.81,4.61C421.79,120.94,423.7,134.47,423.7,134.47Z" transform="translate(-5.24 -19.47)" style="fill:#9a4a4d"></path><path d="M410.63,141.21c-.8-2-2-4.4-2.41-5.74-.81-2.51-.07-5.4.51-8,.28-1.24.39-2.21.64-3.43a19.09,19.09,0,0,0,.5-4,11.19,11.19,0,0,0-1.38-5.2c-.24-.48-3.26-.46-4.14-.82-1.55-.64-1.76-1.85-.47-2.08a21.54,21.54,0,0,1,6-.15c1.33.35,4.14,5.82,4.14,5.82s-1.19-4.42-1.7-5.58-3.36-1.62-4.89-2.19c-2.44-.93-3-3.15-2-3.19a28.2,28.2,0,0,1,7.74,1.27c2.19.73,2.89,1.16,3.92,3.49a39.06,39.06,0,0,1,1.76,5s0-7.06-.26-8.44c0,0-2.06-.87-3-1.3-1.3-.63-2.85-1.69-2.88-3.24,0,0-.39-1.58,2.08-.8s6.67,2,7.41,2.56,1.23,2.28,1.47,5.52c.26,3.4,1.35,10.53,1,15.53-.21,2.79-1.48,4.38-.78,9.67,1.09,8.21,16.34,17.64,23.76,31.91,2.83,5.44,3.85,9.73,3,15.77-1.07,7.95-5.58,10.66-9.76,8.53a38.45,38.45,0,0,1-16.7-18.33C418,158.58,414.19,148.6,410.63,141.21Z" transform="translate(-5.24 -19.47)" style="fill:#b16668"></path><path d="M410.63,141.21c-.76-1.85-1.66-3.63-2.37-5.51a11.33,11.33,0,0,1-.1-5.95l.62-2.93c.18-1,.32-2,.52-2.95a13.69,13.69,0,0,0,.22-5.9,12.65,12.65,0,0,0-1-2.78c0-.1-.13-.26-.16-.3a.73.73,0,0,0-.28-.13c-.23-.06-.47-.1-.72-.14-.49-.07-1-.12-1.48-.17a8.1,8.1,0,0,1-1.51-.26,2.66,2.66,0,0,1-1.27-.91.91.91,0,0,1-.16-.82,1,1,0,0,1,.63-.56,9.22,9.22,0,0,1,1.52-.24,30,30,0,0,1,3-.16,9.72,9.72,0,0,1,1.52.11,1.39,1.39,0,0,1,.75.31,4.1,4.1,0,0,1,.56.54,29.49,29.49,0,0,1,3.22,5.09l-.31.12c-.38-1.38-.78-2.77-1.21-4.14-.11-.34-.22-.68-.34-1a1.75,1.75,0,0,0-.51-.83,6.17,6.17,0,0,0-1.89-.87l-2.07-.62a5.33,5.33,0,0,1-2-1,2.92,2.92,0,0,1-1.14-2,.76.76,0,0,1,.3-.65.85.85,0,0,1,.36-.1h.28c.36,0,.73,0,1.09,0a31.28,31.28,0,0,1,4.3.68,15.51,15.51,0,0,1,4.12,1.43,4.22,4.22,0,0,1,1.49,1.65,16.8,16.8,0,0,1,.91,2,39.83,39.83,0,0,1,1.38,4.12l-.33,0-.05-4.22c0-1.4-.05-2.82-.19-4.19l.09.11c-1.19-.52-2.39-1-3.55-1.63a6.11,6.11,0,0,1-1.57-1.21,2.83,2.83,0,0,1-.79-1.83v0a1,1,0,0,1,.34-1,1.46,1.46,0,0,1,1-.16,12.21,12.21,0,0,1,1.87.5l3.65,1.18c.61.2,1.21.41,1.81.64a8.7,8.7,0,0,1,.89.4,1.83,1.83,0,0,1,.66.75,11.73,11.73,0,0,1,.85,3.76c.38,5.08,1.25,10.15,1.12,15.27.06-5.12-.87-10.17-1.31-15.25a12,12,0,0,0-.85-3.68,1.63,1.63,0,0,0-.58-.66,6.6,6.6,0,0,0-.86-.38c-.6-.23-1.2-.43-1.8-.63l-3.65-1.16a12.74,12.74,0,0,0-1.83-.49,1.27,1.27,0,0,0-.83.13.65.65,0,0,0-.23.71h0v0a2.63,2.63,0,0,0,.73,1.66,6.1,6.1,0,0,0,1.51,1.15c1.12.6,2.34,1.08,3.53,1.6h0a.14.14,0,0,1,.09.11c.15,1.43.16,2.83.2,4.24l.08,4.22a.17.17,0,0,1-.17.17.16.16,0,0,1-.16-.12,40.57,40.57,0,0,0-1.38-4.07c-.56-1.3-1.08-2.74-2.27-3.46a15.25,15.25,0,0,0-4-1.36,30.59,30.59,0,0,0-4.24-.65c-.35,0-.71,0-1.06,0s-.52,0-.54.35a2.6,2.6,0,0,0,1,1.66c1,.92,2.53,1.11,3.9,1.58a6.46,6.46,0,0,1,2,1,2,2,0,0,1,.62,1c.12.35.23.69.34,1,.43,1.39.82,2.77,1.19,4.17a.16.16,0,0,1-.12.2.18.18,0,0,1-.19-.08,29.62,29.62,0,0,0-3.15-5c-.34-.36-.66-.73-1.13-.76a10.17,10.17,0,0,0-1.47-.11,29.73,29.73,0,0,0-3,.15,9.24,9.24,0,0,0-1.44.21.72.72,0,0,0-.47.39.64.64,0,0,0,.13.58,2.46,2.46,0,0,0,1.13.81,8.44,8.44,0,0,0,1.45.25c.49.06,1,.1,1.49.18a6.63,6.63,0,0,1,.75.15,1,1,0,0,1,.39.19,2.34,2.34,0,0,1,.2.37,12.31,12.31,0,0,1,1,2.84,13.92,13.92,0,0,1-.25,6l-.54,3-.66,2.92a11.25,11.25,0,0,0,0,5.9C409,137.55,409.9,139.35,410.63,141.21Z" transform="translate(-5.24 -19.47)" style="fill:#9a4a4d"></path></g></g></g><g id="freepik--speech-bubble--inject-90"><g id="freepik--speech-bubble--inject-90"><path d="M339,82.36l-4.27,5.17-3.33-5.14A25.91,25.91,0,1,0,313,96.69a25.89,25.89,0,0,0,11.87-5.82L335,95.7l4.09-6.58,8.39,6Z" transform="translate(-5.24 -19.47)" style="fill:#fff"></path><path d="M316.79,58.73l-9,17.2a1.5,1.5,0,0,1-1.34.81h-2.35a1.5,1.5,0,0,1-1.46-1.86l4.43-17.66a2.14,2.14,0,0,1,2.08-1.61h5.71A2.14,2.14,0,0,1,316.79,58.73Zm-9.37,24a4,4,0,1,1-4-4A4,4,0,0,1,307.42,82.77Z" transform="translate(-5.24 -19.47)" style="fill:#0070F3"></path><path d="M350.17,98l-10.91-7.86-4,6.47L325,91.7a26.75,26.75,0,0,1-11.84,5.68,26.5,26.5,0,1,1,19-15l2.6,4L339,81.18Zm-25.38-8,9.92,4.76,4.15-6.68,5.87,4.23-5.84-8.8-4.28,5.18-4.07-6.27.17-.36a24.91,24.91,0,0,0-8.81-31.5,25.22,25.22,0,0,0-38.63,25.87A24.82,24.82,0,0,0,294,92.35a25.31,25.31,0,0,0,30.45-2Z" transform="translate(-5.24 -19.47)" style="fill:#455a64"></path></g></g></svg>